<?xml version="1.0" encoding="UTF-8"?>
<svg width="370px" height="200px" viewBox="0 0 370 200" version="1.1" xmlns="http://www.w3.org/2000/svg" xmlns:xlink="http://www.w3.org/1999/xlink">
    <title> placeholder img 1</title>
    <defs>
        <linearGradient x1="50%" y1="35.3907962%" x2="39.4965444%" y2="60.9635325%" id="linearGradient-1">
            <stop stop-color="#000000" stop-opacity="0" offset="0%"></stop>
            <stop stop-color="#000000" stop-opacity="0.543460446" offset="100%"></stop>
        </linearGradient>
        <rect id="path-2" x="0" y="0" width="370" height="200" rx="8"></rect>
    </defs>
    <g id="Page-1" stroke="none" stroke-width="1" fill="none" fill-rule="evenodd">
        <g id="-placeholder-img-1">
            <g id="Rectangle">
                <use fill="#D8D8D8" xlink:href="#path-2"></use>
                <use fill="url(#linearGradient-1)" xlink:href="#path-2"></use>
            </g>
            <g id="image-copy-2" opacity="0.319999993" transform="translate(157.000000, 74.000000)" fill="#000000" fill-rule="nonzero">
                <path d="M14.5822668,40.8884542 C10.8467627,40.8884542 7.52398823,38.496672 6.31741566,34.9359156 L6.23580974,34.6675985 C5.9512568,33.7246432 5.83205219,32.931655 5.83205219,32.1382396 L5.83205219,16.2289137 L0.171329859,35.124763 C-0.556715344,37.9040671 1.10232196,40.7854854 3.88589858,41.5532654 L39.967289,51.2161001 C40.4176175,51.3327412 40.8679459,51.3887118 41.3114382,51.3887118 C43.6352867,51.3887118 45.7587519,49.8463155 46.3539203,47.5733105 L48.4560227,40.8884542 L14.5822668,40.8884542 Z" id="Path"></path>
                <path d="M20.9992334,16.3878532 C23.573027,16.3878532 25.6657297,14.2947232 25.6657297,11.7209296 C25.6657297,9.14713598 23.573027,7.05400611 20.9992334,7.05400611 C18.4254398,7.05400611 16.3323098,9.14713598 16.3323098,11.7209296 C16.3323098,14.2947232 18.4254398,16.3878532 20.9992334,16.3878532 Z" id="Path"></path>
                <path d="M50.1663308,0.0538343831 L15.1654722,0.0538343831 C11.9503663,0.0538343831 9.33213805,2.67206267 9.33213805,5.8875956 L9.33213805,31.5546071 C9.33213805,34.7701401 11.9503663,37.3883684 15.1654722,37.3883684 L50.1663308,37.3883684 C53.3818637,37.3883684 56.000092,34.7701401 56.000092,31.5546071 L56.000092,5.8875956 C56.000092,2.67206267 53.3818637,0.0538343831 50.1663308,0.0538343831 Z M15.1654722,4.72075787 L50.1663308,4.72075787 C50.8106337,4.72075787 51.3331684,5.24329269 51.3331684,5.8875956 L51.3331684,22.4523331 L43.9621381,13.8512309 C43.1802585,12.9343383 42.0484558,12.4442751 40.8329108,12.4165033 C39.624202,12.4233394 38.4902631,12.9599737 37.7156468,13.8888295 L29.0491746,24.290818 L26.2258631,21.4743427 C24.6300598,19.8785395 22.0327671,19.8785395 20.4391001,21.4743427 L13.9990616,27.9122448 L13.9990616,5.8875956 C13.9990616,5.24329269 14.5215965,4.72075787 15.1654722,4.72075787 Z" id="Shape"></path>
            </g>
        </g>
    </g>
</svg>