<?xml version="1.0" encoding="UTF-8"?>
<svg width="48px" height="48px" viewBox="0 0 48 48" version="1.1" xmlns="http://www.w3.org/2000/svg" xmlns:xlink="http://www.w3.org/1999/xlink">
    <title>placeholder img 6</title>
    <g id="Page-1" stroke="none" stroke-width="1" fill="none" fill-rule="evenodd">
        <g id="placeholder-img-6">
            <rect id="Rectangle" fill="#D8D8D8" x="0" y="0" width="48" height="48" rx="2"></rect>
            <g id="image-copy-5" opacity="0.319999993" transform="translate(12.000000, 13.000000)" fill="#000000" fill-rule="nonzero">
                <path d="M6.24954293,17.5236232 C4.64861258,17.5236232 3.22456638,16.4985737 2.70746385,14.9725353 L2.67248989,14.8575422 C2.55053863,14.4534185 2.49945094,14.1135664 2.49945094,13.7735312 L2.49945094,6.95524875 L0.0734270825,15.0534698 C-0.23859229,16.2446002 0.472423699,17.4794937 1.6653851,17.8085423 L17.1288382,21.9497572 C17.3218361,21.9997462 17.514834,22.0237336 17.7049021,22.0237336 C18.7008372,22.0237336 19.6108937,21.3627066 19.8659659,20.3885617 L20.7668669,17.5236232 L6.24954293,17.5236232 Z" id="Path"></path>
                <path d="M8.99967145,7.02336565 C10.1027258,7.02336565 10.9995985,6.12630994 10.9995985,5.02325554 C10.9995985,3.92020114 10.1027258,3.02314547 8.99967145,3.02314547 C7.89661704,3.02314547 6.99956133,3.92020114 6.99956133,5.02325554 C6.99956133,6.12630994 7.89661704,7.02336565 8.99967145,7.02336565 Z" id="Path"></path>
                <path d="M21.499856,0.0230718785 L6.49948774,0.0230718785 C5.12158558,0.0230718785 3.99948774,1.14516972 3.99948774,2.52325526 L3.99948774,13.5234031 C3.99948774,14.9014886 5.12158558,16.0235864 6.49948774,16.0235864 L21.499856,16.0235864 C22.8779416,16.0235864 24.0000394,14.9014886 24.0000394,13.5234031 L24.0000394,2.52325526 C24.0000394,1.14516972 22.8779416,0.0230718785 21.499856,0.0230718785 Z M6.49948807,2.02318194 L21.499856,2.02318194 C21.7759859,2.02318194 21.9999293,2.24712544 21.9999293,2.52325526 L21.9999293,9.62242846 L18.8409163,5.93624183 C18.5058251,5.54328783 18.0207668,5.33326074 17.4998189,5.32135856 C16.9818009,5.32428831 16.495827,5.55427443 16.1638486,5.9523555 L12.4496462,10.4103506 L11.2396556,9.20328972 C10.5557399,8.51937405 9.44261445,8.51937405 8.75961432,9.20328972 L5.99959785,11.9623906 L5.99959785,2.52325526 C5.99959785,2.24712544 6.22354134,2.02318194 6.49948807,2.02318194 Z" id="Shape"></path>
            </g>
        </g>
    </g>
</svg>