<?xml version="1.0" encoding="UTF-8"?>
<svg width="116px" height="80px" viewBox="0 0 116 80" version="1.1" xmlns="http://www.w3.org/2000/svg" xmlns:xlink="http://www.w3.org/1999/xlink">
    <title>placeholder img 4</title>
    <defs>
        <linearGradient x1="50%" y1="26.2187872%" x2="39.4965444%" y2="67.8467015%" id="linearGradient-1">
            <stop stop-color="#000000" stop-opacity="0" offset="0%"></stop>
            <stop stop-color="#000000" stop-opacity="0.543460446" offset="100%"></stop>
        </linearGradient>
        <rect id="path-2" x="0" y="0" width="116" height="80" rx="8"></rect>
    </defs>
    <g id="Page-1" stroke="none" stroke-width="1" fill="none" fill-rule="evenodd">
        <g id="placeholder-img-4">
            <g id="Rectangle-Copy-2">
                <use fill="#D8D8D8" xlink:href="#path-2"></use>
                <use fill="url(#linearGradient-1)" xlink:href="#path-2"></use>
            </g>
            <g id="image-copy" opacity="0.319999993" transform="translate(46.000000, 29.000000)" fill="#000000" fill-rule="nonzero">
                <path d="M6.18586835,17.3224391 C4.60124936,17.3224391 3.19171231,16.3078335 2.67987837,14.7973434 L2.64526075,14.683522 C2.52455201,14.2835158 2.47398484,13.9471263 2.47398484,13.6105556 L2.47398484,6.86174244 L0.0726789575,14.8774534 C-0.23616135,16.0564476 0.467610325,17.2787593 1.64841703,17.6044553 L16.9543179,21.7034767 C17.1453495,21.7529563 17.3363809,21.7766994 17.5245125,21.7766994 C18.5103003,21.7766994 19.4110846,21.1224074 19.6635579,20.1581876 L20.5552799,17.3224391 L6.18586835,17.3224391 Z" id="Path"></path>
                <path d="M8.90797668,6.92916532 C9.99979241,6.92916532 10.8875271,6.04124943 10.8875271,4.94943369 C10.8875271,3.85761795 9.99979241,2.96970211 8.90797668,2.96970211 C7.81616094,2.96970211 6.92824505,3.85761795 6.92824505,4.94943369 C6.92824505,6.04124943 7.81616094,6.92916532 8.90797668,6.92916532 Z" id="Path"></path>
                <path d="M21.2808009,0.000195297079 L6.43326687,0.000195297079 C5.06940338,0.000195297079 3.95873824,1.11086044 3.95873824,2.47490511 L3.95873824,13.3629759 C3.95873824,14.7270206 5.06940338,15.8376857 6.43326687,15.8376857 L21.2808009,15.8376857 C22.6448456,15.8376857 23.7555107,14.7270206 23.7555107,13.3629759 L23.7555107,2.47490511 C23.7555107,1.11086044 22.6448456,0.000195297079 21.2808009,0.000195297079 Z M6.43326687,1.97992688 L21.2808009,1.97992688 C21.5541173,1.97992688 21.7757791,2.20158869 21.7757791,2.47490511 L21.7757791,9.50174711 L18.6489523,5.85311785 C18.3172751,5.46416754 17.837159,5.25628035 17.3215189,5.24449943 C16.8087787,5.24739934 16.3277563,5.4750422 15.9991604,5.86906735 L12.3228008,10.2816413 L11.1251384,9.08687884 C10.4481909,8.40993137 9.34640668,8.40993137 8.67036542,9.08687884 L5.93846987,11.8178681 L5.93846987,2.47490511 C5.93846987,2.20158869 6.16013168,1.97992688 6.43326687,1.97992688 Z" id="Shape"></path>
            </g>
        </g>
    </g>
</svg>