<?xml version="1.0" encoding="UTF-8"?>
<svg width="140px" height="140px" viewBox="0 0 140 140" version="1.1" xmlns="http://www.w3.org/2000/svg" xmlns:xlink="http://www.w3.org/1999/xlink">
    <title>placeholder img 7</title>
    <g id="Page-1" stroke="none" stroke-width="1" fill="none" fill-rule="evenodd">
        <g id="placeholder-img-7">
            <rect id="Rectangle" fill="#D8D8D8" x="-1.42108547e-13" y="0" width="139.766667" height="140" rx="2"></rect>
            <g id="image-copy-4" opacity="0.319999993" transform="translate(50.000000, 51.000000)" fill="#000000" fill-rule="nonzero">
                <path d="M10.4159049,29.2060387 C7.74768764,29.2060387 5.37427731,27.4976228 4.51243976,24.9542254 L4.45414981,24.7625703 C4.25089772,24.0890309 4.16575157,23.5226107 4.16575157,22.9558854 L4.16575157,11.5920812 L0.122378471,25.0891164 C-0.397653817,27.0743336 0.787372831,29.1324896 2.77564184,29.6809039 L28.5480636,36.5829287 C28.8697268,36.6662437 29.1913899,36.7062227 29.5081701,36.7062227 C31.1680619,36.7062227 32.6848228,35.6045111 33.1099431,33.9809361 L34.6114448,29.2060387 L10.4159049,29.2060387 Z" id="Path"></path>
                <path d="M14.9994524,11.7056094 C16.8378764,11.7056094 18.3326641,10.2105166 18.3326641,8.37209257 C18.3326641,6.53366856 16.8378764,5.03857579 14.9994524,5.03857579 C13.1610284,5.03857579 11.6659356,6.53366856 11.6659356,8.37209257 C11.6659356,10.2105166 13.1610284,11.7056094 14.9994524,11.7056094 Z" id="Path"></path>
                <path d="M35.8330934,0.0384531308 L10.8324801,0.0384531308 C8.53597596,0.0384531308 6.6658129,1.9086162 6.6658129,4.20542543 L6.6658129,22.5390051 C6.6658129,24.8358143 8.53597596,26.7059774 10.8324801,26.7059774 L35.8330934,26.7059774 C38.1299026,26.7059774 40.0000657,24.8358143 40.0000657,22.5390051 L40.0000657,4.20542543 C40.0000657,1.9086162 38.1299026,0.0384531308 35.8330934,0.0384531308 Z M10.8324801,3.37196991 L35.8330934,3.37196991 C36.2933098,3.37196991 36.6665489,3.74520906 36.6665489,4.20542543 L36.6665489,16.0373808 L31.4015272,9.89373638 C30.8430418,9.23881305 30.0346113,8.8887679 29.1663649,8.86893093 C28.3030014,8.87381386 27.4930451,9.25712404 26.9397477,9.92059251 L20.7494104,17.3505843 L18.7327594,15.3388162 C17.5928999,14.1989568 15.7376908,14.1989568 14.5993572,15.3388162 L9.99932975,19.9373177 L9.99932975,4.20542543 C9.99932975,3.74520906 10.3725689,3.37196991 10.8324801,3.37196991 Z" id="Shape"></path>
            </g>
        </g>
    </g>
</svg>