<?xml version="1.0" encoding="UTF-8"?>
<svg width="42px" height="42px" viewBox="0 0 42 42" version="1.1" xmlns="http://www.w3.org/2000/svg" xmlns:xlink="http://www.w3.org/1999/xlink">
    <title>call</title>
    <g id="Page-1" stroke="none" stroke-width="1" fill="none" fill-rule="evenodd">
        <g id="Professional-About" transform="translate(-744.000000, -379.000000)">
            <g id="call" transform="translate(745.000000, 380.000000)">
                <circle id="Oval-Copy" stroke="#8489B2" cx="20" cy="20" r="20"></circle>
                <g transform="translate(9.000000, 10.000000)" fill="#8489B2" fill-rule="nonzero" id="Path">
                    <path d="M13.8055825,9.96332587 C13.7667476,10.0200423 13.7667476,10.0767587 13.7473301,10.1523806 C13.7279126,10.3981517 13.9220874,10.6250174 14.1745146,10.6439229 C14.4269417,10.6628284 14.6599515,10.4737736 14.6793689,10.2280025 C14.6793689,10.1712861 14.6793689,10.1145697 14.6987864,10.0200423 C14.6987864,9.92551493 14.6987864,9.86879851 14.6987864,9.81208209 C14.6987864,9.26382338 14.601699,8.73447015 14.4269417,8.22402239 C14.193932,7.56233085 13.786165,6.97626119 13.3007282,6.48471891 C12.6987864,5.89864925 11.9609223,5.48272886 11.1259709,5.25586318 C10.7376214,5.16133582 10.3104369,5.1046194 9.9026699,5.1046194 C9.76674757,5.1046194 9.63082524,5.1046194 9.47548544,5.12352488 C9.33956311,5.14243035 9.20364078,5.16133582 9.06771845,5.18024129 C8.81529126,5.21805224 8.64053398,5.46382338 8.69878641,5.69068905 C8.73762136,5.9364602 8.99004854,6.10660945 9.22305825,6.04989303 C9.33956311,6.03098756 9.43665049,6.01208209 9.55315534,6.01208209 C9.57257282,6.01208209 9.59199029,6.01208209 9.61140777,6.01208209 C9.70849515,6.01208209 9.80558252,5.99317662 9.9026699,5.99317662 C10.9706311,5.99317662 11.9609223,6.40909701 12.6599515,7.1085995 C13.3589806,7.78919652 13.786165,8.71556468 13.8055825,9.75536567 L13.8055825,9.79317662 C13.8055825,9.86879851 13.8055825,9.92551493 13.8055825,9.96332587 Z"></path>
                    <path d="M16.3686893,10.3792463 C16.3492718,10.6250174 16.5434466,10.8518831 16.7958738,10.8707886 C17.048301,10.889694 17.2813107,10.7006393 17.3007282,10.4548682 C17.3201456,10.246908 17.3201456,10.0389478 17.3201456,9.83098756 C17.3201456,9.41506716 17.2813107,9.01805224 17.2230583,8.62103731 C16.9706311,7.1085995 16.2133495,5.74740547 15.1453883,4.70760448 C13.9220874,3.5165597 12.2910194,2.74143532 10.4851942,2.60909701 C10.2910194,2.59019154 10.0774272,2.59019154 9.88325243,2.59019154 C9.66966019,2.59019154 9.45606796,2.59019154 9.24247573,2.60909701 C9.0288835,2.62800249 8.81529126,2.64690796 8.60169903,2.68471891 C8.34927184,2.72252985 8.17451456,2.968301 8.23276699,3.19516667 C8.27160194,3.44093781 8.52402913,3.61108706 8.75703883,3.55437065 C8.89296117,3.53546517 9.00946602,3.5165597 9.14538835,3.49765423 C9.20364078,3.49765423 9.2618932,3.47874876 9.32014563,3.47874876 C9.51432039,3.45984328 9.70849515,3.45984328 9.88325243,3.45984328 C10.5434466,3.45984328 11.1648058,3.55437065 11.7667476,3.7245199 C12.8152913,4.02700746 13.7473301,4.57526617 14.5046117,5.3125796 C15.1259709,5.91755473 15.6308252,6.65486816 15.9609223,7.44889801 C16.2521845,8.16730597 16.4269417,8.96133582 16.4269417,9.79317662 C16.4269417,9.84989303 16.4269417,9.92551493 16.4269417,9.98223134 C16.3881068,10.1334751 16.3686893,10.246908 16.3686893,10.3792463 Z"></path>
                    <path d="M17.0288835,2.8926791 C15.1842233,1.0966592 12.6599515,0.000141791045 9.86383495,0.000141791045 C9.57257282,0.000141791045 9.28131068,0.0190472637 8.99004854,0.0379527363 C8.69878641,0.056858209 8.40752427,0.0946691542 8.11626214,0.151385572 C7.86383495,0.189196517 7.68907767,0.434967662 7.7473301,0.661833333 C7.78616505,0.907604478 8.03859223,1.07775373 8.27160194,1.02103731 C8.40752427,1.00213184 8.52402913,0.983226368 8.65995146,0.964320896 C8.79587379,0.945415423 8.93179612,0.92650995 9.06771845,0.92650995 C9.33956311,0.907604478 9.59199029,0.888699005 9.86383495,0.888699005 C12.3881068,0.888699005 14.6793689,1.89068905 16.3492718,3.49765423 C17.9997573,5.1046194 19.0288835,7.33546517 19.0288835,9.81208209 C19.0288835,9.9444204 19.0288835,10.0956642 19.0288835,10.2280025 C19.0288835,10.3414353 19.009466,10.4548682 19.009466,10.5872065 C18.9900485,10.8329776 19.1842233,11.0598433 19.4366505,11.0787488 C19.6890777,11.0976542 19.9220874,10.9085995 19.9415049,10.6628284 C19.9609223,10.3792463 19.9803398,10.0956642 19.9803398,9.83098756 C19.9803398,7.12750498 18.8541262,4.66979353 17.0288835,2.8926791 Z"></path>
                    <path d="M19.2618932,14.3493955 L15.825,12.5533756 C14.6793689,11.9484005 14.640534,12.3454154 13.4366505,13.5931766 C13.1453883,13.8956642 12.601699,14.689694 11.9609223,14.5384502 C10.6211165,14.2170572 8.11626214,12.3076045 7.30072816,11.4379527 C6.91237864,11.0220323 5.24247573,9.03695771 5.22305825,8.39417164 C5.1842233,7.41108706 7.39781553,6.91954478 6.67936893,5.04790299 L5.14538835,1.70163433 C3.70849515,-1.51229602 -0.31092233,3.62999254 0.0191747573,6.03098756 C0.873543689,11.9484005 11.5337379,21.5145697 17.4754854,18.3573557 C18.7958738,17.6389478 20.5822816,15.1245199 19.2618932,14.3493955 Z"></path>
                </g>
            </g>
        </g>
    </g>
</svg>