<?xml version="1.0" encoding="UTF-8"?>
<svg width="32px" height="32px" viewBox="0 0 32 32" version="1.1" xmlns="http://www.w3.org/2000/svg" xmlns:xlink="http://www.w3.org/1999/xlink">
    <title>change password</title>
    <g id="Page-1" stroke="none" stroke-width="1" fill="none" fill-rule="evenodd">
        <g id="My-Profile" transform="translate(-160.000000, -228.000000)">
            <g id="change-password" transform="translate(160.000000, 228.000000)">
                <rect id="Rectangle-Copy" fill="#D37EF0" x="0" y="0" width="32" height="32" rx="8"></rect>
                <g id="lock" transform="translate(10.000000, 8.000000)" fill-rule="nonzero">
                    <path d="M11.6666563,6 L10.6666563,6 L10.6666563,4.66665625 C10.6666563,2.0934375 8.57325,0 6,0 C3.42675,0 1.33334375,2.0934375 1.33334375,4.66665625 L1.33334375,6 L0.33334375,6 C0.14909375,6 0,6.14909375 0,6.33334375 L0,14.6666875 C0,15.4020313 0.59796875,16 1.33334375,16 L10.6666875,16 C11.4020313,16 12,15.4020313 12,14.6666563 L12,6.33334375 C12,6.14909375 11.8509062,6 11.6666563,6 Z M8.66665625,6 L3.33334375,6 L3.33334375,4.66665625 C3.33334375,3.19628125 4.529625,2 6,2 C7.470375,2 8.66665625,3.19628125 8.66665625,4.66665625 L8.66665625,6 L8.66665625,6 Z" id="Shape" fill="#FFFFFF"></path>
                    <path d="M6.9980625,12.9632187 C7.00846875,13.0572812 6.97821875,13.1516875 6.9150625,13.2223437 C6.85190625,13.2929687 6.76140625,13.3333437 6.6666875,13.3333437 L5.33334375,13.3333437 C5.238625,13.3333437 5.148125,13.2929688 5.08496875,13.2223437 C5.0218125,13.1517187 4.99153125,13.0573125 5.00196875,12.9632187 L5.21225,11.0722812 C4.87078125,10.8239063 4.6666875,10.431 4.6666875,10 C4.6666875,9.26465625 5.26465625,8.66665625 6.00003125,8.66665625 C6.73540625,8.66665625 7.333375,9.264625 7.333375,10 C7.333375,10.431 7.12928125,10.8239063 6.7878125,11.0722812 L6.9980625,12.9632187 Z" id="Path" fill="#D37EF0"></path>
                </g>
            </g>
        </g>
    </g>
</svg>