<?xml version="1.0" encoding="UTF-8"?>
<svg width="32px" height="32px" viewBox="0 0 32 32" version="1.1" xmlns="http://www.w3.org/2000/svg" xmlns:xlink="http://www.w3.org/1999/xlink">
    <title>edit profile</title>
    <g id="Page-1" stroke="none" stroke-width="1" fill="none" fill-rule="evenodd">
        <g id="My-Profile" transform="translate(-160.000000, -172.000000)">
            <g id="edit-profile" transform="translate(160.000000, 172.000000)">
                <rect id="Rectangle" fill="#F5A954" x="0" y="0" width="32" height="32" rx="8"></rect>
                <g id="Group-9" transform="translate(9.000000, 9.000000)" fill-rule="nonzero">
                    <path d="M11.5926488,2.56119141 C11.5926488,2.20927734 11.453125,1.87798828 11.2002679,1.62908203 L9.93770833,0.38625 C9.6883631,0.140771484 9.33440476,0 8.98214286,0 L8.90541667,0 L8.90541667,2.63671875 L11.5926786,2.63671875 L11.5926488,2.56119141 L11.5926488,2.56119141 Z" id="Path" fill="#FFFFFF"></path>
                    <path d="M8.1528869,9.0684668 C8.23833333,8.81311523 8.38744048,8.57537109 8.581875,8.38268555 L11.6045536,5.41921875 L11.6045536,3.515625 L8.46764881,3.515625 C8.22089286,3.515625 8.03571429,3.31907227 8.03571429,3.07617188 L8.03571429,0 L1.33928571,0 C0.60077381,0 8.8817842e-15,0.591386719 8.8817842e-15,1.31835938 L8.8817842e-15,13.6816406 C8.8817842e-15,14.4086133 0.60077381,15 1.33928571,15 L10.2533631,15 C10.991875,15 11.6045536,14.4086133 11.6045536,13.6816406 L11.6045536,10.4018262 L11.1139583,10.8730371 C10.9151786,11.0670117 10.682381,11.2081934 10.4199107,11.2944727 L9.00041667,11.7609668 L8.78416667,11.7725684 C8.42666667,11.7725684 8.0883631,11.6013281 7.87824405,11.3146582 C7.66985119,11.0292773 7.61318452,10.6593457 7.72651786,10.3250391 L8.1528869,9.0684668 Z" id="Shape" fill="#FFFFFF"></path>
                    <path d="M2.23214286,5.20833333 C1.9853869,5.20833333 1.78571429,5.0685625 1.78571429,4.89583333 C1.78571429,4.72310417 1.9853869,4.58333333 2.23214286,4.58333333 L8.46764881,4.58333333 C8.71440476,4.58333333 8.91407738,4.72310417 8.91407738,4.89583333 C8.91407738,5.0685625 8.71440476,5.20833333 8.46764881,5.20833333 L2.23214286,5.20833333 Z" id="Path" fill="#F5A954"></path>
                    <path d="M2.18334654,6.875 C1.96356194,6.875 1.78571429,6.73522917 1.78571429,6.5625 C1.78571429,6.38977083 1.96356194,6.25 2.18334654,6.25 L7.73728838,6.25 C7.95707298,6.25 8.13492063,6.38977083 8.13492063,6.5625 C8.13492063,6.73522917 7.95707298,6.875 7.73728838,6.875 L2.18334654,6.875 Z" id="Path-Copy-2" fill="#F5A954"></path>
                    <path d="M2.13032891,8.54166667 C1.93984892,8.54166667 1.78571429,8.40189583 1.78571429,8.22916667 C1.78571429,8.0564375 1.93984892,7.91666667 2.13032891,7.91666667 L6.94374516,7.91666667 C7.13422515,7.91666667 7.28835979,8.0564375 7.28835979,8.22916667 C7.28835979,8.40189583 7.13422515,8.54166667 6.94374516,8.54166667 L2.13032891,8.54166667 Z" id="Path-Copy-3" fill="#F5A954"></path>
                    <path d="M6.56127689,13.5416667 C6.44405843,13.5416667 6.34920635,13.4018958 6.34920635,13.2291667 C6.34920635,13.0564375 6.44405843,12.9166667 6.56127689,12.9166667 L9.5233792,12.9166667 C9.64059765,12.9166667 9.73544974,13.0564375 9.73544974,13.2291667 C9.73544974,13.4018958 9.64059765,13.5416667 9.5233792,13.5416667 L6.56127689,13.5416667 Z" id="Path-Copy-5" fill="#F5A954"></path>
                    <path d="M8.9616369,9.45726563 L10.0202083,10.4992969 L8.85568452,10.8821484 C8.68113095,10.939541 8.51502976,10.7760938 8.57324405,10.6042676 L8.57324405,10.6042676 L8.9616369,9.45726563 Z M12.4288393,5.83907227 L13.6966964,7.08711914 C12.7142262,8.05423828 11.4212202,9.3272168 10.7566964,9.98147461 L10.7566964,9.98147461 L9.48869048,8.73328125 L12.4288393,5.83907227 Z M14.3427083,4.33444336 C14.5877381,4.33444336 14.8188095,4.42327148 14.975744,4.57863281 C15.3253571,4.92322266 15.3253869,5.48320313 14.9766667,5.82700195 C14.9285119,5.874375 14.6830357,6.11601563 14.3278869,6.46564453 L14.3278869,6.46564453 L13.0600893,5.21765625 L13.7088095,4.57907227 C13.8666369,4.42327148 14.0976786,4.33444336 14.3427083,4.33444336 Z" id="Combined-Shape" fill="#FFFFFF"></path>
                    <g id="Group" transform="translate(14.940476, 5.800781)" fill="#000000">
                        <path d="M0.0828484375,0.0772166667 C0.0829651042,0.0772166667 0.0829651042,0.0771 0.0830817708,0.0769833333 C0.0875151042,0.07255 0.0894984375,0.0705666667 0.0931151042,0.06695 C0.0894984375,0.0706833333 0.0875151042,0.0726666667 0.0828484375,0.0772166667 Z" id="Path"></path>
                        <path d="M0.0845398437,0.0755252604 C0.0901398437,0.0699252604 0.0966731771,0.0633919271 0.10005651,0.0600085938 C0.0965565104,0.0635085938 0.0901398437,0.0699252604 0.0845398437,0.0755252604 Z" id="Path"></path>
                        <path d="M0.092043806,0.0680212982 C0.103360473,0.0567046315 0.103593806,0.0564712982 0.092043806,0.0680212982 L0.092043806,0.0680212982 Z" id="Path"></path>
                    </g>
                </g>
            </g>
        </g>
    </g>
</svg>