<?xml version="1.0" encoding="UTF-8"?>
<svg width="196px" height="168px" viewBox="0 0 196 168" version="1.1" xmlns="http://www.w3.org/2000/svg" xmlns:xlink="http://www.w3.org/1999/xlink">
    <title>event success</title>
    <defs>
        <path d="M0,5.78027322 C1.24205618,23.3874717 2.52177331,36.0740261 3.83915138,43.8399364 C5.05383286,51.0004529 7.18167625,59.1719235 10.2226816,68.3543483 C10.6873986,69.7576186 11.9991914,70.7050423 13.4774096,70.7050423 L91.2469874,70.7050423 C93.1405305,70.7050339 94.6755504,69.170014 94.6755504,67.2764709 C94.6755504,66.9331524 94.6239849,66.591781 94.5225793,66.2637802 C89.8305722,51.0872813 87.0146611,30.9261123 86.0748459,5.78027322 L0,5.78027322 Z" id="path-1"></path>
        <filter x="-12.9%" y="-12.8%" width="124.3%" height="137.8%" filterUnits="objectBoundingBox" id="filter-2">
            <feMorphology radius="1.28571429" operator="dilate" in="SourceAlpha" result="shadowSpreadOuter1"></feMorphology>
            <feOffset dx="0" dy="4" in="shadowSpreadOuter1" result="shadowOffsetOuter1"></feOffset>
            <feGaussianBlur stdDeviation="3" in="shadowOffsetOuter1" result="shadowBlurOuter1"></feGaussianBlur>
            <feComposite in="shadowBlurOuter1" in2="SourceAlpha" operator="out" result="shadowBlurOuter1"></feComposite>
            <feColorMatrix values="0 0 0 0 0   0 0 0 0 0   0 0 0 0 0  0 0 0 0.12 0" type="matrix" in="shadowBlurOuter1"></feColorMatrix>
        </filter>
    </defs>
    <g id="Page-1" stroke="none" stroke-width="1" fill="none" fill-rule="evenodd">
        <g id="congrats" transform="translate(-622.000000, -172.000000)">
            <g id="event-success" transform="translate(622.000000, 172.000000)">
                <path d="M48.4151094,30.0898999 L96.3664158,44.1483728 C99.4107233,45.0409098 102.651646,45.0082953 105.677375,44.0546734 L147.563405,30.853414 C155.991287,28.1971904 164.97673,32.8760442 167.632954,41.3039264 C168.827279,45.0933774 168.568942,49.1916448 166.908222,52.8011265 L154.617558,79.5141912 C152.594344,83.9115309 152.670587,88.9884066 154.824932,93.3230096 L166.70901,117.234103 C170.114001,124.08504 167.32051,132.399113 160.469573,135.804104 C157.098408,137.47961 153.190505,137.710895 149.64524,136.444729 L103.381382,119.921922 C99.9014325,118.679083 96.0985675,118.679083 92.6186176,119.921922 L47.7743607,135.937728 C40.3314734,138.595902 32.1429453,134.717126 29.4847713,127.274239 C28.1647153,123.578082 28.4206866,119.501976 30.1927711,116 L42.7299552,91.2241361 C45.0282632,86.6822418 45.0282632,81.3177582 42.7299552,76.7758639 L30.1927711,52 C26.3209932,44.3486293 29.3849585,35.0072717 37.0363291,31.1354938 C40.5584485,29.3532165 44.627168,28.9793427 48.4151094,30.0898999 Z" id="Rectangle" fill="#F47824" opacity="0.1" transform="translate(98.000000, 84.000000) rotate(-15.000000) translate(-98.000000, -84.000000) "></path>
                <g id="Group-14" transform="translate(54.000000, 40.000000)">
                    <path d="M0,5.78027322 L85.3333333,5.78027322 L85.3333333,81.1850351 C85.3333333,83.0785828 83.7983096,84.6136066 81.9047619,84.6136066 L3.42857143,84.6136066 C1.53502371,84.6136066 2.89642797e-15,83.0785828 0,81.1850351 L0,5.78027322 L0,5.78027322 Z" id="Rectangle" stroke="#2D272C" stroke-width="2.57142857" fill="#F47824"></path>
                    <g id="Path-2">
                        <use fill="black" fill-opacity="1" filter="url(#filter-2)" xlink:href="#path-1"></use>
                        <use stroke="#2D272C" stroke-width="2.57142857" fill="#FFFFFF" fill-rule="evenodd" xlink:href="#path-1"></use>
                    </g>
                    <path d="M10.6666667,1.60048584 C15.6131207,-1.49422873 18.5418045,-0.100966266 19.4527181,5.78027322 C20.3636316,11.6615127 18.8992897,15.2931597 15.0596924,16.6752141" id="Path-3" stroke="#2D272C" stroke-width="2.57142857"></path>
                    <path d="M29.7647589,1.60048584 C34.711213,-1.49422873 37.6398968,-0.100966266 38.5508103,5.78027322 C39.4617238,11.6615127 37.9973819,15.2931597 34.1577846,16.6752141" id="Path-3-Copy" stroke="#2D272C" stroke-width="2.57142857"></path>
                    <path d="M47.5425367,1.60048584 C52.4889907,-1.49422873 55.4176745,-0.100966266 56.3285881,5.78027322 C57.2395016,11.6615127 55.7751597,15.2931597 51.9355624,16.6752141" id="Path-3-Copy-2" stroke="#2D272C" stroke-width="2.57142857"></path>
                    <path d="M65.3203145,1.60048584 C70.2667685,-1.49422873 73.1954523,-0.100966266 74.1063658,5.78027322 C75.0172794,11.6615127 73.5529375,15.2931597 69.7133401,16.6752141" id="Path-3-Copy-3" stroke="#2D272C" stroke-width="2.57142857"></path>
                    <polyline id="Path-4" stroke="#F47824" stroke-width="4.28571429" stroke-linecap="round" stroke-linejoin="round" points="32.4952126 42.9124377 41.4880413 52.4350265 63.0274294 29.1301518"></polyline>
                </g>
            </g>
        </g>
    </g>
</svg>