<?xml version="1.0" encoding="UTF-8"?>
<svg width="24px" height="24px" viewBox="0 0 24 24" version="1.1" xmlns="http://www.w3.org/2000/svg" xmlns:xlink="http://www.w3.org/1999/xlink">
    <title>heart</title>
    <g id="Page-1" stroke="none" stroke-width="1" fill="none" fill-rule="evenodd">
        <g id="Select-Venue" transform="translate(-870.000000, -273.000000)">
            <g id="Group-3" transform="translate(870.000000, 273.000000)">
                <circle id="Oval" fill="#000000" opacity="0.5" cx="12" cy="12" r="12"></circle>
                <path d="M8.6862915,5.5 C9.7563509,5.5 10.8258245,5.91963016 11.6420288,6.75662446 C11.7721014,6.89001021 11.891416,7.02955952 12.0000109,7.17424983 C12.108584,7.02955952 12.2278986,6.89001021 12.3579712,6.75662446 C13.1741755,5.91963016 14.2436491,5.5 15.3137085,5.5 C16.3837679,5.5 17.4532415,5.91963016 18.2694458,6.75662446 C19.0904998,7.59859199 19.5,8.70238529 19.5,9.80565862 C19.5,10.9089319 19.0904998,12.0127252 18.2694458,12.8546928 L18.2694458,12.8546928 L12,19.283831 L5.73055424,12.8546928 C4.90950023,12.0127252 4.5,10.9089319 4.5,9.80565862 C4.5,8.70238529 4.90950023,7.59859199 5.73055424,6.75662446 C6.54675855,5.91963016 7.6162321,5.5 8.6862915,5.5 Z" id="Combined-Shape-Copy" stroke="#FFFFFF"></path>
            </g>
        </g>
    </g>
</svg>