<?xml version="1.0" encoding="UTF-8"?>
<svg width="355px" height="325px" viewBox="0 0 355 325" version="1.1" xmlns="http://www.w3.org/2000/svg" xmlns:xlink="http://www.w3.org/1999/xlink">
    <title>ill pass</title>
    <defs>
        <polygon id="path-1" points="0.711980223 0.25951358 354.991899 0.25951358 354.991899 196.686253 0.711980223 196.686253"></polygon>
    </defs>
    <g id="Page-1" stroke="none" stroke-width="1" fill="none" fill-rule="evenodd">
        <g id="Change-Password" transform="translate(-909.000000, -249.000000)">
            <g id="ill-pass" transform="translate(1086.500000, 411.500000) scale(-1, 1) translate(-1086.500000, -411.500000) translate(909.000000, 249.000000)">
                <g id="Group-3" transform="translate(0.000000, 128.270510)">
                    <mask id="mask-2" fill="white">
                        <use xlink:href="#path-1"></use>
                    </mask>
                    <g id="Clip-2"></g>
                    <path d="M49.4391506,158.329677 C114.39623,196.691928 219.713856,196.693369 284.670936,158.330398 C349.628735,119.965985 349.628735,57.7677591 284.670936,19.404788 C219.712416,-18.9589038 114.39551,-18.9589038 49.4377104,19.4040674 C-15.5193687,57.7663179 -15.5193687,119.965985 49.4391506,158.329677" id="Fill-1" fill="#F1F0EC" mask="url(#mask-2)"></path>
                </g>
                <path d="M269.045355,33.1463969 L274.566937,36.3365854 C274.539574,36.090133 274.520852,35.8444013 274.520852,35.6051552 L274.520852,34.0039357 C274.520852,31.1553215 276.519077,30.0001663 278.984635,31.4248337 C279.983387,32.0013304 280.901491,32.9157982 281.644615,33.9851996 C282.0493,30.4029933 284.857617,29.0684035 288.268641,31.0393016 C291.956897,33.1701774 294.947394,38.3528825 294.947394,42.6153548 L294.947394,45.0106984 C294.947394,46.1146896 294.74289,47.0442905 294.38213,47.7850887 L298.968327,50.4348115 C300.335761,51.2253326 301.443966,53.1472284 301.443966,54.7268293 C301.443966,56.3071508 300.335761,56.9477827 298.968327,56.1579823 L269.045355,38.868847 C267.677921,38.0783259 266.568996,36.1571508 266.568996,34.5768293 C266.568996,32.9965078 267.677921,32.3558758 269.045355,33.1463969" id="Fill-5" fill="#E4E4DE"></path>
                <path d="M245.414452,49.2472284 L249.581562,51.6555432 C249.5614,51.4689024 249.546278,51.2844235 249.546278,51.1028271 L249.546278,49.8950665 C249.546278,47.7447339 251.054848,46.8727827 252.915538,47.9486696 C253.669462,48.3839246 254.362181,49.0735588 254.923124,49.8806541 C255.228438,47.1768847 257.347637,46.1694568 259.921927,47.6575388 C262.705761,49.2659645 264.962495,53.1774945 264.962495,56.3936253 L264.962495,58.201663 C264.962495,59.0347007 264.808398,59.7365854 264.536207,60.2950665 L267.996917,62.29551 C269.029513,62.8914634 269.866247,64.3420732 269.866247,65.5347007 C269.866247,66.7273282 269.029513,67.2108647 267.996917,66.6141907 L245.414452,53.5659091 C244.381856,52.9699557 243.545122,51.5193459 243.545122,50.3267184 C243.545122,49.1348115 244.381856,48.6512749 245.414452,49.2472284" id="Fill-6" fill="#E4E4DE"></path>
                <path d="M60.5501826,185.546896 C60.1433367,185.768126 52.6141684,187.906929 49.8252941,184.220233 C47.0364199,180.533537 51.6636613,174.786585 49.0476065,172.668681 C46.4308316,170.550776 39.0996856,172.680931 37.3347667,168.219568 C35.5698479,163.758204 40.8012373,161.846397 37.861146,157.356208 C36.0098174,154.527772 31.4632252,152.943847 31.06214,150.329435 C30.3931846,145.95959 37.6285598,143.95194 43.8176572,148.076774 C50.0060345,152.202328 53.7475761,150.31214 55.7119574,150.035421 C57.6756187,149.757982 61.9082556,150.369069 61.7721602,157.266851 C61.636785,164.165355 60.5501826,185.546896 60.5501826,185.546896" id="Fill-7" fill="#8489B2"></path>
                <path d="M61.0477586,175.736364 C60.8504564,175.736364 60.6769168,175.593681 60.6437931,175.392627 C58.4885903,162.30255 43.2826369,151.648171 35.3768661,149.361641 C35.1594016,149.298947 35.0333874,149.071231 35.0967546,148.853603 C35.1594016,148.636696 35.3869473,148.511308 35.6044118,148.573282 C43.6894828,150.910976 59.2417951,161.827661 61.4531643,175.259313 C61.4906085,175.482705 61.3386714,175.694568 61.1154462,175.731319 L61.0477586,175.736364" id="Fill-8" fill="#FFFFFE"></path>
                <path d="M43.1206187,164.780044 C42.9802028,164.780044 42.8441075,164.707982 42.7677789,164.579712 C42.6518458,164.384424 42.7159331,164.132927 42.910355,164.016907 C43.1566227,163.8699 49.0065619,160.447672 54.7708114,162.048891 C54.989716,162.109424 55.1171704,162.335698 55.0566836,162.554047 C54.9954767,162.772395 54.7722515,162.902827 54.5519067,162.839412 C49.1289757,161.333315 43.3863286,164.689246 43.3294422,164.722395 C43.2639148,164.761308 43.1919067,164.780044 43.1206187,164.780044" id="Fill-9" fill="#FFFFFE"></path>
                <path d="M63.4693912,190.574667 C63.4693912,192.441075 64.8649087,194.760754 66.5873428,195.755931 L153.951907,246.233259 C155.673621,247.228437 158.465375,247.228437 160.187809,246.233259 L279.726318,177.166075 C281.448032,176.170898 282.84427,173.85122 282.84427,171.984812 C282.84427,170.117683 281.448753,167.798004 279.726318,166.802827 L192.361755,116.325499 C190.63932,115.330322 187.848286,115.330322 186.125852,116.325499 L66.5866227,185.392683 C64.8641886,186.38714 63.4693912,188.707539 63.4693912,190.574667" id="Fill-10" fill="#253C40"></path>
                <g id="Group-14" transform="translate(57.606491, 0.000000)">
                    <path d="M99.4648073,240.225443 L99.4648073,246.977661 C98.3342799,246.977661 97.2037525,246.73265 96.346856,246.235421 L8.97941176,195.755931 C7.25841785,194.761475 5.86146045,192.441075 5.86146045,190.574667 C5.86146045,188.823559 7.09279919,186.676109 8.66257606,185.595177 C7.26561866,186.59684 7.37363083,188.066907 8.97941176,188.996508 L96.346856,239.475998 C97.2037525,239.973226 98.3342799,240.225443 99.4648073,240.225443" id="Fill-11" fill="#132529"></path>
                    <path d="M2.93721095,185.504379 C1.32206897,184.570455 0.0122413793,182.201053 0.0122413793,180.211419 L0.0122413793,75.8763304 C0.0122413793,73.8859756 1.4084787,71.4661308 3.1301927,70.4716741 L122.668702,1.40449002 C124.391136,0.409312639 127.096481,0.3595898 128.711623,1.29279379 C130.328205,2.22599778 131.637312,4.59611973 131.637312,6.58575388 L131.637312,110.920843 C131.637312,112.910477 130.241795,115.330322 128.519361,116.325499 L8.98013185,185.392683 C7.25769777,186.38714 4.55307302,186.437583 2.93721095,185.504379" id="Fill-13" fill="#334F55"></path>
                </g>
                <path d="M66.2186613,185.580765 C64.4976673,186.38786 62.0493915,186.373448 60.5444219,185.501497 C58.9314402,184.571896 57.6208925,182.201053 57.6208925,180.21214 L57.6208925,75.8734479 C57.6208925,74.8789911 57.9665314,73.7764412 58.5353955,72.8036031 L64.3824544,76.1761086 L64.3824544,76.1833149 C63.8207911,77.1633592 63.4679513,78.2587029 63.4679513,79.2531596 L63.4679513,183.591851 C63.4679513,185.436641 64.6704868,186.265355 66.2186613,185.580765" id="Fill-15" fill="#132529"></path>
                <path d="M63.4686714,79.2560421 L63.4686714,183.591131 C63.4686714,185.580765 64.8641886,186.38714 66.5866227,185.392683 L186.125852,116.325499 C187.848286,115.330322 189.243803,112.910477 189.243803,110.920843 L189.243803,6.58575388 C189.243803,4.59611973 187.848286,3.78902439 186.125852,4.78420177 L66.5866227,73.8513858 C64.8641886,74.8465632 63.4686714,77.266408 63.4686714,79.2560421" id="Fill-16" fill="#253C40"></path>
                <path d="M66.5866227,188.995787 L153.951907,239.473115 C155.673621,240.468293 158.465375,240.468293 160.187809,239.473115 L279.726318,170.405931 C281.448753,169.410754 281.448753,167.798004 279.726318,166.802827 L192.361755,116.325499 C190.63932,115.330322 187.848286,115.330322 186.125852,116.325499 L66.5866227,185.392683 C64.8641886,186.38714 64.8641886,188.00061 66.5866227,188.995787" id="Fill-17" fill="#334F55"></path>
                <path d="M68.2636917,79.6422949 L183.514838,13.0691796 C184.548154,12.4725055 185.385609,12.9560421 185.385609,14.1501109 L185.385609,104.468404 C185.385609,105.661752 184.548154,107.114523 183.514838,107.711197 L68.2636917,174.282871 C67.2303753,174.879545 66.3929209,174.395288 66.3929209,173.20194 L66.3929209,82.8843681 C66.3929209,81.6902993 67.2303753,80.238969 68.2636917,79.6422949" id="Fill-18" fill="#FFFFFE"></path>
                <path d="M67.4283976,174.537971 C66.8141684,174.537971 66.3929209,174.04867 66.3929209,173.20194 L66.3929209,82.8843681 C66.3929209,81.6902993 67.2303753,80.238969 68.2636917,79.6422949 L183.514838,13.0691796 C183.815112,12.89551 184.098824,12.8133592 184.350852,12.8133592 C184.964361,12.8133592 185.385609,13.3033814 185.385609,14.1501109 L185.385609,104.468404 C185.385609,105.661752 184.548154,107.114523 183.514838,107.711197 L68.2636917,174.282871 C67.9634178,174.45582 67.6797059,174.537971 67.4283976,174.537971" id="Fill-19" fill="#8489B2"></path>
                <path d="M125.643357,73.9313747 C128.712343,72.1579268 131.199503,73.5955654 131.199503,77.14102 C131.199503,80.6864745 128.712343,84.9986696 125.643357,86.7713969 C122.575091,88.5441242 120.087211,87.1072062 120.087211,83.561031 C120.087211,80.0155765 122.575091,75.704102 125.643357,73.9313747" id="Fill-20" fill="#EAEAE5"></path>
                <path d="M136.592911,92.8945122 C136.592911,87.0690133 132.50573,84.4827051 127.465162,87.3954545 L124.313367,89.2164634 C119.273519,92.1292129 115.185619,99.2129157 115.185619,105.038415 L115.185619,106.605765 L136.592911,94.2456763 L136.592911,92.8945122" id="Fill-21" fill="#EAEAE5"></path>
                <path d="M147.41789,95.7726718 C147.214108,95.3028271 146.697089,95.1846452 146.111663,95.5197339 L108.727211,117.106652 C108.349888,117.323559 107.998489,117.701164 107.750781,118.140022 C107.498032,118.573836 107.346095,119.059534 107.346095,119.504157 L107.346095,123.90571 C107.346095,124.655155 107.792546,125.021951 108.396694,124.851885 L108.494625,124.820898 C108.577434,124.789911 108.654483,124.748115 108.727211,124.70704 L146.111663,103.120122 C146.875669,102.680543 147.494939,101.606098 147.494939,100.722616 L147.494939,96.3210643 C147.494939,96.1445122 147.474777,95.9240022 147.41789,95.7726718" id="Fill-22" fill="#EAEAE5"></path>
                <path d="M112.105832,117.652162 C112.830953,117.232761 113.41926,117.572894 113.41926,118.410976 C113.41926,119.249058 112.830953,120.268016 112.105832,120.687417 C111.38071,121.106098 110.792404,120.765965 110.792404,119.927882 C110.792404,119.0898 111.38071,118.070843 112.105832,117.652162" id="Fill-23" fill="#00A798"></path>
                <path d="M116.450081,115.141519 C117.175203,114.722838 117.763509,115.062251 117.763509,115.901053 C117.763509,116.739135 117.175203,117.758093 116.450081,118.176774 C115.724959,118.596175 115.136653,118.256763 115.136653,117.41796 C115.136653,116.579878 115.724959,115.56092 116.450081,115.141519" id="Fill-24" fill="#00A798"></path>
                <path d="M120.794331,112.631596 C121.519452,112.212916 122.107759,112.553049 122.107759,113.391131 C122.107759,114.229213 121.519452,115.248171 120.794331,115.666851 C120.069209,116.086253 119.480903,115.74684 119.480903,114.908758 C119.480903,114.069956 120.069209,113.050998 120.794331,112.631596" id="Fill-25" fill="#00A798"></path>
                <path d="M125.13858,110.121674 C125.863702,109.702993 126.451288,110.042406 126.451288,110.880488 C126.451288,111.71857 125.863702,112.738248 125.13858,113.156929 C124.413458,113.57633 123.825152,113.236197 123.825152,112.398115 C123.825152,111.560033 124.413458,110.541075 125.13858,110.121674" id="Fill-26" fill="#00A798"></path>
                <path d="M129.48283,107.611752 C130.207951,107.193071 130.796258,107.532483 130.796258,108.370565 C130.796258,109.208647 130.207951,110.227605 129.48283,110.647007 C128.757708,111.066408 128.169402,110.726275 128.169402,109.888193 C128.169402,109.050111 128.757708,108.031153 129.48283,107.611752" id="Fill-27" fill="#00A798"></path>
                <path d="M133.827079,105.101829 C134.552201,104.683149 135.139787,105.022561 135.139787,105.860643 C135.139787,106.698725 134.552201,107.718404 133.827079,108.137084 C133.101957,108.556486 132.513651,108.216353 132.513651,107.378271 C132.513651,106.540188 133.101957,105.521231 133.827079,105.101829" id="Fill-28" fill="#00A798"></path>
                <path d="M138.171329,102.591907 C138.89645,102.173226 139.484037,102.512639 139.484037,103.350721 C139.484037,104.188803 138.89645,105.208481 138.171329,105.627162 C137.445487,106.045843 136.857901,105.70643 136.857901,104.868348 C136.857901,104.030266 137.445487,103.010588 138.171329,102.591907" id="Fill-29" fill="#00A798"></path>
                <path d="M142.514858,100.081984 C143.2407,99.6625831 143.828286,100.002716 143.828286,100.840798 C143.828286,101.67888 143.2407,102.697838 142.514858,103.117239 C141.790456,103.53592 141.20215,103.196508 141.20215,102.358426 C141.20215,101.520344 141.790456,100.500665 142.514858,100.081984" id="Fill-30" fill="#00A798"></path>
                <path d="M76.7275254,186.29418 L187.685548,122.184867 C188.546765,121.687639 189.943002,121.687639 190.803499,122.184867 L196.479178,125.464412 C197.339675,125.961641 197.339675,126.768016 196.479178,127.265244 L85.5045943,191.364468 C84.6433773,191.861696 83.24714,191.861696 82.3859229,191.364468 L76.7275254,188.095732 C75.8663083,187.597783 75.8663083,186.791408 76.7275254,186.29418" id="Fill-31" fill="#253C40"></path>
                <path d="M91.3538134,194.74418 L202.311116,130.634146 C203.171613,130.136918 204.56785,130.136918 205.429067,130.634146 L240.33572,150.803603 C241.196217,151.300831 241.196217,152.107927 240.33572,152.605155 L129.505872,216.625831 C128.644655,217.12378 127.247698,217.125942 126.385041,216.630876 L91.3574138,196.540687 C90.4940365,196.045621 90.4933164,195.241408 91.3538134,194.74418" id="Fill-32" fill="#132529"></path>
                <path d="M151.04854,167.443459 C151.206957,167.534978 151.455385,167.540022 151.603002,167.454989 L155.076673,165.447339 C155.22429,165.362306 155.216369,165.218902 155.057231,165.127384 L151.039899,162.806264 C150.881481,162.714024 150.633053,162.709701 150.486156,162.794734 L147.011765,164.802384 C146.864148,164.887417 146.872789,165.03082 147.031207,165.122339 L151.04854,167.443459 M192.386237,141.855654 C192.544655,141.947894 192.793083,141.952938 192.9407,141.867184 L196.414371,139.860255 C196.561988,139.774501 196.553347,139.631818 196.394929,139.539579 L195.324888,138.922007 C195.167191,138.830488 194.918763,138.825443 194.771146,138.911197 L191.297475,140.918126 C191.149138,141.00316 191.158499,141.146563 191.316917,141.238082 L192.386237,141.855654 M223.673043,153.756707 L227.147434,151.749778 C227.295051,151.664024 227.28641,151.521341 227.127272,151.429823 L223.109939,149.108703 C222.952241,149.017184 222.703813,149.01214 222.556197,149.096452 L219.082525,151.104102 C218.934189,151.189856 218.94355,151.332539 219.101968,151.424058 L223.11858,153.745898 C223.277718,153.837417 223.525426,153.841741 223.673043,153.756707 M210.980172,140.8648 C211.13859,140.956319 211.386298,140.960643 211.533915,140.87561 L215.008306,138.868681 C215.155923,138.782927 215.147282,138.640244 214.988864,138.548725 L210.971531,136.227605 C210.813114,136.135366 210.564686,136.130322 210.417069,136.215355 L206.943398,138.223725 C206.795781,138.308758 206.804422,138.452162 206.96284,138.54296 L210.980172,140.8648 M202.541542,135.98908 C202.699959,136.079878 202.947667,136.085643 203.095284,135.999889 L206.569675,133.99296 C206.717292,133.907206 206.708651,133.764523 206.549513,133.673004 L205.480913,133.054712 C205.321775,132.963193 205.074067,132.958149 204.92645,133.043902 L201.452059,135.050831 C201.304442,135.135865 201.313803,135.279268 201.471501,135.370787 L202.541542,135.98908 M187.308945,144.790022 C187.467363,144.881541 187.715071,144.886585 187.863408,144.800831 L191.337079,142.793182 C191.484696,142.708869 191.476055,142.565466 191.317637,142.473947 L190.248316,141.855654 C190.089899,141.764135 189.841471,141.759091 189.693854,141.844124 L186.220183,143.851774 C186.072566,143.936807 186.080487,144.080211 186.239625,144.171729 L187.308945,144.790022 M161.203844,161.576164 C161.362262,161.667683 161.61069,161.672727 161.758306,161.586973 L165.231978,159.580044 C165.379594,159.495011 165.370953,159.351608 165.211815,159.260089 L161.195203,156.938969 C161.036785,156.84745 160.788357,156.842406 160.64074,156.927439 L157.167069,158.934368 C157.019452,159.020122 157.028093,159.163525 157.186511,159.255044 L161.203844,161.576164 M156.125832,164.509812 C156.28497,164.60061 156.532677,164.606375 156.680294,164.520621 L160.154686,162.513692 C160.302302,162.428659 160.292941,162.285255 160.135243,162.193016 L156.117911,159.872616 C155.958773,159.781098 155.711065,159.776053 155.563448,159.861086 L152.089057,161.868736 C151.94144,161.953769 151.950801,162.097173 152.109219,162.188692 L156.125832,164.509812 M177.559047,152.126663 C177.716744,152.217461 177.965172,152.223226 178.112789,152.138193 L181.587181,150.130543 C181.734077,150.044789 181.726156,149.902106 181.567018,149.810588 L177.549686,147.489468 C177.391988,147.397228 177.14356,147.392905 176.995943,147.477938 L173.522272,149.484867 C173.373935,149.570621 173.383296,149.713304 173.541714,149.805543 L177.559047,152.126663 M166.281136,158.641796 C166.440274,158.733315 166.687982,158.73908 166.835598,158.653326 L170.30999,156.646397 C170.456886,156.561364 170.448245,156.41796 170.289828,156.326441 L166.272495,154.004601 C166.114077,153.913803 165.866369,153.908758 165.718753,153.993792 L162.244361,156.001441 C162.096744,156.086475 162.106105,156.229878 162.264523,156.321397 L166.281136,158.641796 M182.636339,149.192295 C182.794757,149.284534 183.043185,149.289579 183.190081,149.203825 L186.664473,147.196896 C186.812089,147.111863 186.802728,146.968459 186.64503,146.87622 L182.627698,144.5551 C182.46928,144.463581 182.220852,144.458537 182.073235,144.54429 L178.598844,146.55122 C178.451947,146.636253 178.460588,146.780377 178.619006,146.871175 L182.636339,149.192295 M172.481755,155.05959 C172.639452,155.151109 172.88788,155.156874 173.035497,155.07112 L176.509168,153.064191 C176.656785,152.979157 176.648144,152.835033 176.489726,152.743514 L172.473114,150.423115 C172.313976,150.330876 172.065548,150.325831 171.918651,150.411585 L168.44426,152.418514 C168.296643,152.503548 168.305284,152.647672 168.463702,152.739191 L172.481755,155.05959 M197.463529,138.922007 C197.622667,139.014246 197.870375,139.01857 198.017992,138.933537 L201.492383,136.926608 C201.64,136.841574 201.630639,136.698171 201.472221,136.605931 L200.402901,135.988359 C200.244483,135.89684 199.996775,135.891796 199.849158,135.976829 L196.374047,137.984479 C196.22715,138.069512 196.235791,138.212916 196.394929,138.304435 L197.463529,138.922007 M174.234432,182.321397 L177.708103,180.314468 C177.85572,180.229435 177.847079,180.086031 177.688661,179.993792 L173.671329,177.673392 C173.512911,177.581874 173.265203,177.576109 173.116866,177.661863 L169.643195,179.669512 C169.495578,179.753825 169.504219,179.897949 169.663357,179.989468 L173.67997,182.310588 C173.838387,182.402106 174.086815,182.407151 174.234432,182.321397 M164.079128,188.189412 L167.552799,186.181763 C167.701136,186.096729 167.692495,185.953326 167.534077,185.861807 L163.516744,183.540687 C163.358327,183.449169 163.109899,183.444124 162.962282,183.529157 L159.48789,185.536086 C159.340994,185.62184 159.349635,185.765244 159.508053,185.856763 L163.525385,188.177882 C163.683083,188.269401 163.931511,188.274446 164.079128,188.189412 M169.15642,185.255765 L172.630811,183.248836 C172.778428,183.163082 172.769787,183.019678 172.611369,182.92816 L168.594037,180.60704 C168.435619,180.515521 168.187191,180.510477 168.039574,180.59551 L164.565183,182.602439 C164.418286,182.688193 164.426927,182.830876 164.585345,182.923115 L168.601957,185.244235 C168.761095,185.335754 169.009523,185.340798 169.15642,185.255765 M148.846531,196.990355 L152.320923,194.982705 C152.46854,194.897672 152.459899,194.754268 152.300761,194.662749 L148.284148,192.34235 C148.12573,192.250111 147.877302,192.245067 147.729686,192.33082 L144.255294,194.337749 C144.107677,194.422783 144.117039,194.566186 144.275456,194.657705 L148.292789,196.978825 C148.451207,197.070344 148.698915,197.075388 148.846531,196.990355 M159.001836,191.12306 L162.476227,189.11541 C162.623124,189.030377 162.614483,188.886973 162.456065,188.795455 L158.438732,186.474335 C158.280314,186.382816 158.032606,186.377772 157.88499,186.462805 L154.411318,188.470455 C154.262982,188.555488 154.272343,188.698891 154.430041,188.79041 L158.447373,191.11153 C158.606511,191.203049 158.854219,191.208093 159.001836,191.12306 M153.924544,194.056707 L157.398215,192.049058 C157.545832,191.964024 157.537191,191.820621 157.378773,191.729102 L153.36144,189.407982 C153.203022,189.316463 152.954594,189.311419 152.806978,189.396452 L149.333306,191.404102 C149.18569,191.489135 149.194331,191.632539 149.352748,191.724058 L153.370081,194.045177 C153.528499,194.136696 153.776927,194.141741 153.924544,194.056707 M201.739371,166.09806 C201.898509,166.189579 202.146217,166.194623 202.293834,166.10959 L205.768225,164.10194 C205.915842,164.016186 205.907201,163.873503 205.748783,163.781984 L201.73145,161.460865 C201.573032,161.369346 201.324604,161.364302 201.176988,161.449335 L197.703316,163.456264 C197.5557,163.542018 197.564341,163.685421 197.722759,163.77694 L201.739371,166.09806 M179.311724,179.38847 L182.786116,177.38082 C182.933732,177.295787 182.924371,177.152384 182.765953,177.060865 L178.749341,174.739745 C178.590923,174.647506 178.342495,174.643182 178.194878,174.728215 L174.720487,176.735865 C174.57287,176.820898 174.582231,176.964302 174.740649,177.05582 L178.757982,179.37622 C178.9164,179.468459 179.164108,179.473503 179.311724,179.38847 M207.779412,156.308426 L211.253083,154.301497 C211.40142,154.215743 211.392779,154.072339 211.233641,153.981541 L207.217028,151.660421 C207.05789,151.568182 206.810183,151.563137 206.662566,151.648171 L203.188174,153.65582 C203.040558,153.741574 203.049199,153.884257 203.208337,153.975776 L207.225669,156.296896 C207.383367,156.389135 207.631795,156.393459 207.779412,156.308426 M212.963996,159.613193 C213.122414,159.704712 213.370842,159.709035 213.517738,159.624002 L216.99213,157.617073 C217.139746,157.531319 217.131105,157.388636 216.972688,157.296397 L212.955355,154.975998 C212.796937,154.883758 212.548509,154.878714 212.400892,154.964468 L208.927221,156.972118 C208.779604,157.05643 208.788966,157.200554 208.946663,157.292073 L212.963996,159.613193 M184.389016,176.454102 L194.54432,170.586807 C194.691937,170.501774 194.683296,170.35837 194.524158,170.266851 L190.507546,167.945732 C190.349128,167.854213 190.1007,167.849169 189.953083,167.934922 L179.798499,173.802217 C179.650882,173.88653 179.659523,174.030654 179.817941,174.122173 L183.835274,176.442572 C183.993692,176.534812 184.2414,176.539856 184.389016,176.454102 M195.893753,156.544069 L199.368144,154.536419 C199.515761,154.451386 199.50712,154.307982 199.348702,154.216463 L195.331369,151.895344 C195.172951,151.803825 194.925243,151.79878 194.777627,151.884534 L191.302515,153.891463 C191.154899,153.976497 191.16426,154.1199 191.323398,154.211419 L195.34001,156.532539 C195.498428,156.624058 195.746136,156.629823 195.893753,156.544069 M218.595751,156.690355 L222.069422,154.683426 C222.217039,154.597672 222.208398,154.454268 222.0507,154.362749 L218.032647,152.04235 C217.874949,151.950111 217.626521,151.945787 217.478905,152.03082 L214.004513,154.037749 C213.857617,154.123503 213.865538,154.266907 214.023955,154.358426 L218.041288,156.678825 C218.199706,156.770344 218.448854,156.776109 218.595751,156.690355 M207.470497,164.776441 C207.312079,164.684922 207.063651,164.679878 206.916034,164.764911 L203.442363,166.772561 C203.294746,166.857594 203.302667,167.000998 203.461805,167.092517 L207.478418,169.413636 C207.637556,169.505155 207.885264,169.5102 208.03288,169.425166 L211.507272,167.418237 C211.654888,167.332483 211.645527,167.18908 211.48783,167.097561 L207.470497,164.776441 M189.297809,175.275887 C189.139391,175.184368 188.891684,175.179324 188.744067,175.264357 L184.468225,177.735366 C184.320609,177.820399 184.329249,177.963803 184.487667,178.055322 L188.50572,180.376441 C188.663418,180.46796 188.911846,180.473004 189.058742,180.387971 L193.335304,177.917683 C193.482921,177.831929 193.47356,177.688525 193.315142,177.597007 L189.297809,175.275887 M135.583357,206.310865 C135.424939,206.219346 135.177231,206.215022 135.028895,206.300055 L130.753053,208.770344 C130.605436,208.856098 130.614797,208.99878 130.773215,209.09102 L134.789828,211.411419 C134.948966,211.502938 135.196673,211.508703 135.34429,211.42367 L139.620132,208.952661 C139.767748,208.867627 139.759108,208.724224 139.60069,208.632705 L135.583357,206.310865 M177.539604,182.0699 C177.381187,181.978381 177.133479,181.973337 176.985862,182.05837 L172.71002,184.528659 C172.561684,184.614412 172.571045,184.757816 172.729462,184.849335 L176.746795,187.169734 C176.904493,187.261973 177.152921,187.267018 177.301258,187.181984 L181.576379,184.710976 C181.723996,184.625942 181.715355,184.482539 181.556217,184.39102 L177.539604,182.0699 M141.462819,202.914579 C141.304402,202.82306 141.055974,202.818016 140.908357,202.903049 L136.632515,205.373337 C136.484899,205.45837 136.49426,205.602494 136.652677,205.694013 L140.66929,208.015133 C140.827708,208.106652 141.076136,208.111696 141.223753,208.025942 L145.499594,205.555654 C145.647211,205.470621 145.63857,205.327217 145.480152,205.235698 L141.462819,202.914579 M171.660862,185.466907 C171.501724,185.375388 171.254016,185.370344 171.1064,185.455377 L142.511978,201.977051 C142.364361,202.062084 142.373002,202.205488 142.53142,202.297007 L146.548753,204.618126 C146.70717,204.709645 146.954878,204.71469 147.103215,204.628936 L175.697637,188.107982 C175.845254,188.022949 175.835892,187.879545 175.677475,187.788027 L171.660862,185.466907 M196.246592,171.261308 C196.088174,171.169789 195.839746,171.164745 195.69213,171.250499 L190.346968,174.338359 C190.199351,174.423392 190.208712,174.566796 190.36713,174.658315 L194.384462,176.979435 C194.54216,177.070953 194.790588,177.075998 194.938205,176.990965 L200.283367,173.902384 C200.430984,173.81735 200.421623,173.673947 200.263205,173.582428 L196.246592,171.261308 M183.419067,178.672894 C183.260649,178.581375 183.012221,178.57633 182.864604,178.661364 L178.588763,181.131652 C178.441146,181.217406 178.449787,181.360809 178.608205,181.452328 L182.625538,183.773448 C182.783955,183.864246 183.032383,183.870011 183.18,183.784978 L187.455842,181.313969 C187.603458,181.228936 187.594097,181.085532 187.43568,180.994013 L183.419067,178.672894 M237.944331,151.811752 L228.187951,146.174335 C228.028813,146.082816 227.781826,146.077772 227.634209,146.162805 L224.159097,148.170455 C224.011481,148.255488 224.020842,148.399612 224.17998,148.49041 L233.934919,154.127827 C234.094057,154.219346 234.341765,154.22439 234.489381,154.138636 L237.963053,152.131707 C238.110669,152.046674 238.102748,151.90255 237.944331,151.811752 M228.848986,152.424279 C228.690568,152.332761 228.44286,152.326996 228.294523,152.412029 L224.820852,154.420399 C224.673235,154.505432 224.681876,154.648836 224.841014,154.739634 L228.857627,157.061475 C229.016045,157.152993 229.264473,157.157317 229.411369,157.072284 L232.885761,155.065355 C233.034097,154.980322 233.024736,154.836918 232.866318,154.745399 L228.848986,152.424279 M202.392485,167.710089 C202.234067,167.61857 201.985639,167.613525 201.838022,167.698559 L198.364351,169.706208 C198.216734,169.791242 198.226095,169.934645 198.383793,170.026164 L202.401126,172.347284 C202.559544,172.438803 202.807972,172.443847 202.955588,172.358814 L206.42926,170.351885 C206.576876,170.266131 206.568235,170.122727 206.409817,170.031208 L202.392485,167.710089 M143.769239,199.924002 L147.243631,197.916353 C147.390527,197.831319 147.381886,197.687916 147.223469,197.596397 L143.206136,195.275277 C143.047718,195.183758 142.80001,195.178714 142.652394,195.263747 L139.178722,197.271397 C139.030385,197.35643 139.039746,197.499834 139.198164,197.591353 L143.214777,199.912472 C143.373195,200.003991 143.621623,200.009035 143.769239,199.924002 M212.547789,161.842794 C212.389371,161.751275 212.141663,161.746231 211.994047,161.831264 L208.519655,163.838193 C208.372039,163.923947 208.38068,164.06735 208.539097,164.158869 L212.55643,166.479989 C212.714848,166.571508 212.962556,166.576552 213.110892,166.491519 L216.584564,164.483869 C216.732181,164.398836 216.722819,164.255432 216.564402,164.163914 L212.547789,161.842794 M223.771694,155.357927 C223.613276,155.266408 223.365568,155.261364 223.217951,155.346397 L214.666268,160.287694 C214.518651,160.372727 214.526572,160.516131 214.68571,160.60765 L218.703043,162.928769 C218.86146,163.020288 219.109888,163.025333 219.257505,162.939579 L227.808469,157.999002 C227.956085,157.913969 227.947444,157.770565 227.788306,157.679047 L223.771694,155.357927 M116.165649,187.598503 C116.324067,187.690022 116.571775,187.695067 116.719391,187.610033 L120.193063,185.602384 C120.3414,185.51735 120.332039,185.373947 120.174341,185.282428 L116.157008,182.961308 C115.99859,182.869789 115.750162,182.864745 115.602546,182.949778 L112.128154,184.957428 C111.981258,185.042461 111.989899,185.185865 112.148316,185.277384 L116.165649,187.598503 M121.242941,184.664856 C121.401359,184.756375 121.649067,184.761419 121.796684,184.675665 L125.271075,182.668736 C125.418692,182.583703 125.410051,182.440299 125.251633,182.34878 L121.2343,180.027661 C121.075882,179.935421 120.827454,179.930377 120.679838,180.016131 L117.206166,182.02306 C117.05855,182.108814 117.067191,182.252217 117.225609,182.343736 L121.242941,184.664856 M129.703895,209.708592 C129.545477,209.617073 129.297769,209.611308 129.150152,209.697062 L123.80571,212.784922 C123.658093,212.870676 123.666734,213.01408 123.825152,213.105599 L127.842485,215.425998 C128.000903,215.517517 128.248611,215.523282 128.396227,215.437528 L133.740669,212.349667 C133.889006,212.264634 133.879645,212.12051 133.721227,212.028991 L129.703895,209.708592 M128.529442,180.454989 C128.68786,180.545787 128.936288,180.550831 129.083905,180.465798 L132.557576,178.458869 C132.705193,178.373115 132.696552,178.229712 132.538134,178.138193 L128.520801,175.817073 C128.362383,175.726275 128.114675,175.72051 127.967059,175.806264 L124.492667,177.813193 C124.345051,177.898947 124.354412,178.04163 124.51283,178.133869 L128.529442,180.454989 M138.684746,174.586973 C138.843164,174.678492 139.091592,174.684257 139.239209,174.598503 L142.71288,172.590854 C142.860497,172.50582 142.851856,172.362417 142.693438,172.270898 L138.676105,169.949778 C138.517688,169.858259 138.26926,169.853215 138.121643,169.938969 L134.647972,171.945898 C134.500355,172.030931 134.508996,172.174335 134.667414,172.265854 L138.684746,174.586973 M111.087637,190.53143 C111.246055,190.62367 111.494483,190.628714 111.642099,190.543681 L115.116491,188.536031 C115.263387,188.450998 115.254746,188.307594 115.096329,188.216075 L111.078996,185.894956 C110.920578,185.803437 110.67287,185.798392 110.525254,185.883426 L107.050862,187.891075 C106.903245,187.976109 106.912606,188.119512 107.071024,188.211031 L111.087637,190.53143 M133.606734,177.520621 C133.765872,177.61286 134.01358,177.617905 134.161197,177.532151 L137.635588,175.524501 C137.783205,175.439468 137.774564,175.296064 137.615426,175.204545 L133.598813,172.883426 C133.439675,172.791907 133.191968,172.786863 133.044351,172.872616 L129.569959,174.879545 C129.422343,174.964579 129.431704,175.107982 129.589402,175.200222 L133.606734,177.520621 M143.762039,171.653326 C143.920456,171.744845 144.168884,171.749889 144.315781,171.664856 L147.790172,169.657206 C147.937789,169.572173 147.929148,169.428769 147.77073,169.337251 L143.754118,167.016851 C143.59498,166.924612 143.346552,166.919568 143.198935,167.004601 L139.725264,169.012251 C139.577647,169.097284 139.586288,169.240687 139.744706,169.332206 L143.762039,171.653326 M126.91358,209.330987 L122.896247,207.010588 C122.73855,206.919069 122.489402,206.913304 122.342505,206.999058 L118.066663,209.469346 C117.919047,209.554379 117.927688,209.698503 118.086105,209.789302 L122.103438,212.110421 C122.261856,212.20194 122.510284,212.206984 122.657181,212.121951 L126.933742,209.651663 C127.080639,209.565909 127.071998,209.422506 126.91358,209.330987 M123.580325,204.625333 L119.562992,202.304933 C119.404574,202.213415 119.156146,202.20837 119.008529,202.293404 L112.327617,206.153769 C112.18,206.238803 112.188641,206.382206 112.347059,206.473725 L116.364391,208.794845 C116.522809,208.886364 116.771237,208.891408 116.918854,208.806375 L123.599767,204.946009 C123.747383,204.860976 123.738742,204.717572 123.580325,204.625333 M106.010345,193.465798 C106.168763,193.557317 106.417191,193.562361 106.564807,193.477328 L110.038479,191.469678 C110.186095,191.383925 110.177454,191.241242 110.019037,191.149723 L106.001704,188.828603 C105.843286,188.737084 105.594858,188.73204 105.447241,188.817073 L101.97357,190.824002 C101.825953,190.909756 101.834594,191.05316 101.993012,191.144678 L106.010345,193.465798 M102.731815,195.35959 L98.7152028,193.03847 C98.556785,192.946951 98.308357,192.941907 98.1607404,193.02694 L93.8848986,195.497949 C93.738002,195.582982 93.7459229,195.726386 93.9050609,195.817905 L97.9216734,198.139024 C98.0800913,198.230543 98.3292394,198.235588 98.4761359,198.150554 L102.751978,195.679545 C102.899594,195.594512 102.890953,195.451109 102.731815,195.35959 M116.504807,202.082262 L112.487475,199.761142 C112.329777,199.669623 112.081349,199.664579 111.933732,199.749612 L106.58857,202.838193 C106.440953,202.923226 106.450314,203.06663 106.608732,203.158149 L110.626065,205.479268 C110.784483,205.570787 111.032191,205.575831 111.179807,205.490078 L116.52497,202.402217 C116.672586,202.316463 116.663225,202.17378 116.504807,202.082262 M108.89571,199.846896 L104.878377,197.526497 C104.719959,197.434978 104.471531,197.429933 104.323915,197.514967 L100.850243,199.522616 C100.702627,199.60765 100.711268,199.750333 100.869686,199.841851 L104.887018,202.163692 C105.045436,202.25449 105.293864,202.259534 105.441481,202.174501 L108.915152,200.167572 C109.062769,200.081818 109.054128,199.939135 108.89571,199.846896 M138.691947,202.85765 L142.165619,200.85 C142.313235,200.764967 142.304594,200.621563 142.146176,200.530044 L138.128844,198.208925 C137.970426,198.117406 137.722718,198.112361 137.575101,198.198115 L134.10071,200.205044 C133.953093,200.290078 133.961734,200.433481 134.120152,200.525721 L138.137485,202.84612 C138.295903,202.937639 138.544331,202.942683 138.691947,202.85765 M142.398205,182.147727 L138.924533,184.154656 C138.776917,184.23969 138.785558,184.383814 138.943976,184.475333 L142.962028,186.795732 C143.119726,186.887971 143.368154,186.893016 143.515771,186.807262 L146.989442,184.800333 C147.137059,184.714579 147.128418,184.571175 146.97,184.480377 L142.952667,182.159257 C142.79497,182.067018 142.545822,182.061973 142.398205,182.147727 M137.321633,185.080654 L133.847241,187.088304 C133.699625,187.173337 133.708266,187.317461 133.866684,187.408259 L137.884016,189.729379 C138.042434,189.820898 138.290862,189.826663 138.438479,189.740909 L141.91215,187.73398 C142.059767,187.648226 142.051126,187.505543 141.892708,187.413304 L137.875375,185.092905 C137.716957,185.001386 137.468529,184.995621 137.321633,185.080654 M157.631521,173.346064 L154.15713,175.353714 C154.009513,175.439468 154.018874,175.582151 154.176572,175.67367 L158.193905,177.99551 C158.352323,178.086308 158.600751,178.091353 158.748367,178.006319 L162.222039,175.99867 C162.369655,175.913636 162.361014,175.770953 162.202596,175.678714 L158.185264,173.357594 C158.026846,173.266075 157.779138,173.261752 157.631521,173.346064 M147.476217,179.213359 L144.001826,181.221009 C143.854929,181.306042 143.86357,181.450166 144.021988,181.540965 L148.0386,183.862084 C148.197738,183.954324 148.445446,183.958647 148.593063,183.873614 L152.067454,181.866685 C152.215071,181.780931 152.20571,181.638248 152.047292,181.546009 L148.03068,179.224889 C147.871542,179.13337 147.623834,179.128326 147.476217,179.213359 M152.553509,176.280432 L149.079838,178.287361 C148.932221,178.372395 148.940862,178.515798 149.09928,178.608038 L153.116613,180.928437 C153.27503,181.019956 153.522738,181.025721 153.670355,180.939967 L157.144746,178.933038 C157.292363,178.848004 157.283722,178.70388 157.125304,178.612361 L153.107972,176.291962 C152.949554,176.199723 152.701126,176.194678 152.553509,176.280432 M132.243621,188.015022 L128.769949,190.021951 C128.621613,190.107705 128.630974,190.250388 128.789391,190.342627 L132.806724,192.663747 C132.965142,192.755266 133.21285,192.76031 133.361187,192.675277 L136.834858,190.666907 C136.981755,190.581874 136.973834,190.439191 136.814696,190.347672 L132.798083,188.025831 C132.639665,187.934313 132.391237,187.929989 132.243621,188.015022 M127.166329,190.94867 L123.691937,192.955599 C123.54432,193.040632 123.553682,193.184756 123.711379,193.276275 L127.729432,195.596674 C127.88713,195.688914 128.135558,195.693958 128.283174,195.608204 L131.757566,193.601275 C131.905183,193.516242 131.895822,193.372118 131.737404,193.280599 L127.720791,190.9602 C127.561653,190.868681 127.313945,190.862916 127.166329,190.94867 M145.513276,192.284701 L148.986947,190.277772 C149.134564,190.192018 149.125923,190.049335 148.967505,189.957095 L144.950172,187.635976 C144.792475,187.544457 144.544047,187.539412 144.39643,187.625166 L140.922039,189.632095 C140.774422,189.717129 140.783063,189.861253 140.941481,189.952051 L144.958813,192.273171 C145.117231,192.36469 145.365659,192.370455 145.513276,192.284701 M140.435264,195.218348 L143.909655,193.211419 C144.057272,193.126386 144.048631,192.982982 143.890213,192.891463 L139.87288,190.570344 C139.714462,190.478104 139.466034,190.47306 139.318418,190.558814 L135.844746,192.565743 C135.69713,192.651497 135.705771,192.7949 135.864189,192.886419 L139.881521,195.207539 C140.039939,195.299058 140.288367,195.303381 140.435264,195.218348 M135.357972,198.151996 L138.831643,196.145067 C138.97926,196.060033 138.971339,195.91663 138.812201,195.825111 L134.795588,193.503991 C134.63717,193.412472 134.388742,193.406707 134.241126,193.492461 L130.766734,195.49939 C130.619838,195.585144 130.628479,195.728548 130.786897,195.820067 L134.804229,198.140466 C134.962647,198.232705 135.210355,198.237749 135.357972,198.151996 M122.089037,193.882317 L118.614645,195.889967 C118.467028,195.975 118.475669,196.118404 118.634087,196.209922 L122.65142,198.530322 C122.809838,198.62184 123.057546,198.627605 123.205882,198.542572 L126.679554,196.534922 C126.82717,196.449889 126.818529,196.306486 126.660112,196.214967 L122.642779,193.893126 C122.484361,193.802328 122.235933,193.797284 122.089037,193.882317 M129.726217,201.074113 C129.884635,201.166353 130.133063,201.171397 130.28068,201.085643 L133.755071,199.078714 C133.901968,198.993681 133.893327,198.850277 133.734909,198.758038 L129.717576,196.437639 C129.559158,196.34612 129.31145,196.340355 129.163834,196.426109 L125.689442,198.433038 C125.541826,198.518792 125.551187,198.662195 125.709604,198.753714 L129.726217,201.074113 M167.786105,167.478769 L164.311714,169.486419 C164.164097,169.571452 164.173458,169.714856 164.331876,169.806375 L168.349209,172.127494 C168.507627,172.219013 168.755335,172.224058 168.902951,172.139024 L172.377343,170.131375 C172.524959,170.046341 172.516318,169.902938 172.357181,169.81214 L168.340568,167.490299 C168.18215,167.39878 167.933722,167.393736 167.786105,167.478769 M212.302961,153.363248 C212.460659,153.454767 212.709807,153.459812 212.857424,153.374778 L216.331095,151.367849 C216.477992,151.282095 216.470071,151.138692 216.311653,151.047173 L212.29432,148.726053 C212.135903,148.634534 211.887475,148.62949 211.739858,148.714523 L208.266187,150.722173 C208.11857,150.807206 208.127211,150.95133 208.285629,151.042129 L212.302961,153.363248 M162.708813,170.412417 L159.234422,172.420067 C159.086805,172.5051 159.096166,172.649224 159.254584,172.740022 L163.271917,175.061142 C163.430335,175.152661 163.678043,175.157705 163.825659,175.072672 L167.300051,173.065743 C167.447667,172.979989 167.438306,172.836585 167.279888,172.745067 L163.262556,170.423947 C163.104138,170.332428 162.85643,170.327384 162.708813,170.412417 M200.924239,148.333315 L197.449128,150.340244 C197.301511,150.425277 197.310872,150.568681 197.46929,150.6602 L201.486623,152.980599 C201.645041,153.072838 201.892748,153.077882 202.040365,152.992849 L205.514757,150.9852 C205.662373,150.899446 205.653732,150.756763 205.494594,150.665244 L201.477982,148.344124 C201.319564,148.252605 201.071136,148.247561 200.924239,148.333315 M212.701886,141.859257 L222.457546,147.495953 C222.616684,147.587472 222.863671,147.592517 223.012008,147.507483 L226.48568,145.500554 C226.634016,145.4148 226.624655,145.271397 226.466237,145.179878 L216.710578,139.543182 C216.55216,139.451663 216.303732,139.446619 216.156116,139.531652 L212.682444,141.539302 C212.534828,141.624335 212.542748,141.767738 212.701886,141.859257 M211.632566,142.476829 C211.474148,142.38459 211.22572,142.380266 211.078103,142.465299 L207.604432,144.472949 C207.457535,144.557982 207.466176,144.701386 207.623874,144.792905 L211.641927,147.114024 C211.799625,147.205543 212.048053,147.210588 212.195669,147.125554 L215.669341,145.117905 C215.816957,145.032871 215.809037,144.889468 215.649899,144.797949 L211.632566,142.476829 M207.118377,150.059202 L210.592049,148.051552 C210.740385,147.966519 210.731024,147.823115 210.572606,147.731596 L206.555274,145.410477 C206.396856,145.318958 206.149148,145.313914 206.000811,145.398947 L202.52714,147.406596 C202.379523,147.49163 202.388164,147.635033 202.546582,147.726552 L206.563915,150.047672 C206.721613,150.139191 206.970761,150.144235 207.118377,150.059202 M217.934716,150.441131 L221.408387,148.433481 C221.556004,148.348448 221.546643,148.205044 221.388945,148.113525 L217.371613,145.792406 C217.213195,145.700887 216.964767,145.695843 216.81715,145.781596 L213.343479,147.788525 C213.195862,147.873559 213.204503,148.016962 213.362921,148.108481 L217.379533,150.429601 C217.538671,150.52112 217.787099,150.526164 217.934716,150.441131 M155.66858,186.417406 L159.142252,184.410477 C159.289868,184.324723 159.281227,184.181319 159.122089,184.090521 L155.105477,181.768681 C154.947059,181.677162 154.698631,181.672118 154.551014,181.757151 L151.077343,183.7648 C150.929006,183.849834 150.938367,183.993958 151.096785,184.084756 L155.113398,186.405876 C155.272535,186.497395 155.520963,186.502439 155.66858,186.417406 M205.894239,139.161253 C205.735822,139.069734 205.487394,139.06469 205.339777,139.149723 L201.866105,141.156652 C201.718489,141.242406 201.72713,141.385809 201.885548,141.477328 L205.90288,143.797727 C206.061298,143.889967 206.309006,143.895011 206.456623,143.809257 L209.930294,141.802328 C210.078631,141.717295 210.06999,141.573891 209.910852,141.481652 L205.894239,139.161253 M173.980963,169.205377 L177.454635,167.198448 C177.602252,167.112694 177.593611,166.96929 177.435193,166.877772 L173.41786,164.556652 C173.259442,164.465133 173.011734,164.460089 172.863398,164.545122 L169.389726,166.552772 C169.24211,166.637805 169.250751,166.781208 169.409168,166.872727 L173.426501,169.193847 C173.584919,169.285366 173.833347,169.29041 173.980963,169.205377 M200.262485,142.08337 L196.788813,144.09102 C196.640477,144.176053 196.649838,144.319457 196.808256,144.410976 L200.825588,146.732095 C200.984006,146.823614 201.231714,146.828659 201.378611,146.742905 L204.853722,144.735976 C205.000619,144.650222 204.991978,144.506818 204.83356,144.415299 L200.816227,142.0949 C200.658529,142.003381 200.410101,141.998337 200.262485,142.08337 M189.03858,148.568237 L185.564189,150.575887 C185.416572,150.66092 185.425933,150.804324 185.583631,150.895843 L189.600963,153.216962 C189.760101,153.308481 190.007809,153.313525 190.155426,153.228492 L193.629817,151.220843 C193.776714,151.135809 193.768073,150.992406 193.609655,150.900887 L189.592323,148.579767 C189.433905,148.488248 189.186197,148.483204 189.03858,148.568237 M195.185193,145.017018 L191.710801,147.023947 C191.563185,147.109701 191.571826,147.253104 191.730243,147.344623 L195.747576,149.665022 C195.905994,149.757262 196.154422,149.762306 196.302039,149.677273 L199.77571,147.669623 C199.923327,147.58459 199.914686,147.441186 199.756268,147.349667 L195.739655,145.028548 C195.580517,144.937029 195.332809,144.931984 195.185193,145.017018 M150.590568,189.351053 L154.064959,187.344124 C154.212576,187.25837 154.203215,187.114967 154.045517,187.023448 L150.028185,184.703049 C149.869047,184.61153 149.621339,184.606486 149.473722,184.691519 L145.999331,186.698448 C145.851714,186.784202 145.861075,186.926885 146.019493,187.018404 L150.036105,189.340244 C150.194523,189.431763 150.442951,189.436086 150.590568,189.351053 M124.634523,185.780377 L121.160132,187.787306 C121.012515,187.87306 121.021156,188.015743 121.180294,188.107262 L125.196907,190.428381 C125.355325,190.5199 125.603753,190.524945 125.751369,190.439911 L129.225041,188.432262 C129.373377,188.347228 129.364016,188.203825 129.205598,188.112306 L125.188266,185.791186 C125.029848,185.699667 124.78214,185.694623 124.634523,185.780377 M129.711815,182.846009 L126.237424,184.853659 C126.089807,184.938692 126.099168,185.082095 126.257586,185.173614 L130.274199,187.494734 C130.433337,187.586253 130.681045,187.591297 130.828661,187.506264 L134.303053,185.498614 C134.449949,185.413581 134.442028,185.270177 134.28289,185.178659 L130.266278,182.857539 C130.10786,182.76602 129.859432,182.760976 129.711815,182.846009 M134.789108,179.913082 L131.315436,181.920011 C131.167819,182.005044 131.17646,182.148448 131.334878,182.239967 L135.352211,184.561086 C135.509909,184.652605 135.759057,184.65765 135.906673,184.571896 L139.380345,182.564967 C139.527961,182.479933 139.51932,182.33653 139.360903,182.245011 L135.34357,179.923891 C135.185152,179.832373 134.936724,179.827328 134.789108,179.913082 M144.944412,174.045067 L141.47002,176.052716 C141.322404,176.137749 141.331045,176.281153 141.490183,176.372672 L145.506795,178.693792 C145.665213,178.78531 145.913641,178.790355 146.061258,178.704601 L149.534929,176.697672 C149.683266,176.612639 149.673905,176.469235 149.516207,176.377716 L145.498874,174.056596 C145.339736,173.965078 145.092028,173.960033 144.944412,174.045067 M119.557231,188.713304 L116.08284,190.720953 C115.935223,190.805987 115.944584,190.950111 116.102282,191.040909 L120.119615,193.362029 C120.278032,193.453548 120.52574,193.459313 120.673357,193.373559 L124.147748,191.36663 C124.295365,191.280876 124.286724,191.137472 124.127586,191.045953 L120.110974,188.724834 C119.952556,188.634035 119.704848,188.628271 119.557231,188.713304 M139.8664,176.978714 L136.392728,178.985643 C136.245112,179.071397 136.253753,179.2148 136.41217,179.306319 L140.429503,181.627439 C140.587921,181.718958 140.835629,181.724002 140.983245,181.638969 L144.457637,179.631319 C144.605254,179.546286 144.596613,179.402882 144.438195,179.311364 L140.420862,176.990244 C140.262444,176.898725 140.014016,176.893681 139.8664,176.978714 M114.479219,191.646951 L111.005548,193.654601 C110.857211,193.740355 110.866572,193.883038 111.02499,193.974557 L115.042323,196.295676 C115.20074,196.387195 115.448448,196.392239 115.596065,196.307206 L119.070456,194.299557 C119.218073,194.214523 119.209432,194.07112 119.051014,193.980322 L115.033682,191.658481 C114.875264,191.566962 114.626836,191.561918 114.479219,191.646951 M127.982901,208.713415 C128.141318,208.804933 128.389026,208.809978 128.536643,208.724945 L132.011034,206.717295 C132.158651,206.632262 132.14929,206.488858 131.990872,206.397339 L127.97426,204.07622 C127.815122,203.984701 127.567414,203.980377 127.419797,204.06541 L123.945406,206.072339 C123.798509,206.158093 123.80643,206.300776 123.965568,206.392295 L127.982901,208.713415 M133.613935,205.791297 L137.088327,203.784368 C137.235943,203.698614 137.227302,203.555211 137.068884,203.463692 L133.051552,201.142572 C132.893134,201.051774 132.644706,201.046009 132.497089,201.131763 L129.023418,203.138692 C128.875801,203.223725 128.884442,203.367129 129.04358,203.458647 L133.060193,205.779767 C133.218611,205.871286 133.467039,205.877051 133.613935,205.791297 M117.574128,201.46469 C117.732546,201.556208 117.980254,201.561253 118.12787,201.47622 L121.602262,199.46857 C121.749878,199.383537 121.740517,199.239412 121.582099,199.148614 L117.565487,196.827494 C117.407069,196.735976 117.159361,196.730931 117.011024,196.815965 L113.537353,198.822894 C113.389736,198.908647 113.398377,199.052051 113.556795,199.14357 L117.574128,201.46469 M109.401927,194.581319 L105.927535,196.588248 C105.779919,196.673282 105.78856,196.817406 105.947698,196.908925 L109.96431,199.229324 C110.123448,199.320843 110.371156,199.326608 110.518773,199.240854 L113.993164,197.233925 C114.140781,197.148891 114.13142,197.004767 113.973002,196.913248 L109.955669,194.592849 C109.797252,194.50133 109.549544,194.495565 109.401927,194.581319 M124.648925,204.008481 C124.807343,204.1 125.055771,204.105044 125.203387,204.020011 L128.677059,202.012361 C128.824675,201.927328 128.816034,201.783204 128.657617,201.691685 L124.640284,199.371286 C124.481866,199.279767 124.233438,199.274723 124.086542,199.359756 L120.61215,201.366685 C120.464533,201.452439 120.473895,201.595843 120.631592,201.687361 L124.648925,204.008481 M150.021704,171.111419 L146.548032,173.118348 C146.400416,173.204102 146.409057,173.347506 146.567475,173.439024 L150.584087,175.760144 C150.743225,175.851663 150.991653,175.856707 151.13855,175.771674 L154.612941,173.764024 C154.760558,173.678991 154.751917,173.535588 154.592779,173.444069 L150.576166,171.122949 C150.417748,171.03143 150.16932,171.026386 150.021704,171.111419 M155.098996,168.177772 L151.625325,170.185421 C151.477708,170.270455 151.486349,170.413858 151.645487,170.504656 L155.662099,172.826497 C155.820517,172.918016 156.068225,172.92306 156.215842,172.838027 L159.690233,170.830377 C159.83785,170.745344 159.829209,170.60194 159.670791,170.510421 L155.653458,168.189302 C155.495041,168.097783 155.247333,168.092738 155.098996,168.177772 M181.055761,171.749169 L188.805994,167.271231 C188.953611,167.185477 188.944249,167.042794 188.785832,166.951275 L179.030172,161.313858 C178.871755,161.22306 178.623327,161.218016 178.47571,161.303049 L174.467738,163.619124 C174.319402,163.704157 174.328763,163.847561 174.48646,163.93908 L179.652323,166.923171 C179.81002,167.01469 179.819381,167.158093 179.671765,167.243847 L176.464523,169.096563 C176.316907,169.181596 176.326268,169.325 176.484686,169.416519 L180.501298,171.737639 C180.659716,171.829157 180.908144,171.834202 181.055761,171.749169 M185.739168,162.411364 L189.21284,160.403714 C189.360456,160.318681 189.351815,160.175277 189.194118,160.083758 L185.176065,157.762639 C185.017647,157.67112 184.769939,157.666796 184.622323,157.751829 L181.148651,159.758758 C181.001034,159.843792 181.009675,159.987195 181.168093,160.079435 L185.184706,162.399834 C185.343844,162.491353 185.591552,162.496397 185.739168,162.411364 M160.745872,183.483758 L164.219544,181.476829 C164.36788,181.391075 164.358519,181.247672 164.200101,181.156153 L160.182769,178.835033 C160.024351,178.744235 159.776643,178.73847 159.629026,178.823503 L156.154635,180.831153 C156.007018,180.916186 156.016379,181.05959 156.174797,181.151109 L160.19141,183.472228 C160.349828,183.563747 160.598256,183.568792 160.745872,183.483758 M165.823164,180.550111 L169.297556,178.542461 C169.445172,178.457428 169.435811,178.314024 169.277394,178.222506 L165.260781,175.901386 C165.102363,175.809867 164.853935,175.804823 164.706318,175.890576 L161.231927,177.897506 C161.08431,177.982539 161.093671,178.125942 161.252089,178.217461 L165.269422,180.538581 C165.42784,180.6301 165.675548,180.635144 165.823164,180.550111 M170.900456,177.616463 L174.374848,175.608814 C174.522465,175.52378 174.513103,175.380377 174.354686,175.288858 L170.338073,172.967738 C170.179655,172.87622 169.931227,172.871175 169.783611,172.956208 L166.309939,174.963858 C166.162323,175.048891 166.170963,175.192295 166.329381,175.283814 L170.346714,177.604933 C170.505132,177.696452 170.75284,177.701497 170.900456,177.616463 M175.978469,174.682816 L179.45214,172.675166 C179.599757,172.590133 179.591116,172.446729 179.432698,172.355211 L175.415365,170.034091 C175.256947,169.942572 175.008519,169.937528 174.861623,170.022561 L171.387231,172.030211 C171.239615,172.115244 171.248256,172.258647 171.406673,172.350166 L175.424006,174.671286 C175.582424,174.762805 175.830852,174.767849 175.978469,174.682816 M160.177008,165.244124 L156.702617,167.251053 C156.555,167.336086 156.564361,167.480211 156.722059,167.571729 L160.740112,169.892129 C160.898529,169.984368 161.146237,169.989412 161.293854,169.903659 L164.767525,167.896729 C164.915862,167.810976 164.906501,167.667572 164.748083,167.576053 L160.730751,165.255654 C160.572333,165.164135 160.324625,165.159091 160.177008,165.244124 M165.2543,162.310477 L161.780629,164.317406 C161.633012,164.40316 161.641653,164.545843 161.800071,164.638082 L165.817404,166.959202 C165.975101,167.05 166.223529,167.055765 166.371146,166.970732 L169.845538,164.963082 C169.993154,164.877328 169.983793,164.734645 169.825375,164.643126 L165.808763,162.322007 C165.649625,162.229767 165.401917,162.225443 165.2543,162.310477 M178.883276,154.435532 L175.408884,156.443182 C175.261988,156.528215 175.270629,156.671619 175.429047,156.763137 L179.446379,159.084257 C179.604797,159.175776 179.853225,159.18082 180.000122,159.095787 L183.474513,157.088137 C183.62213,157.003104 183.613489,156.859701 183.454351,156.768182 L179.437738,154.447062 C179.27932,154.355543 179.030892,154.350499 178.883276,154.435532 M172.737383,157.987472 L166.857921,161.384479 C166.710304,161.468792 166.718945,161.612916 166.877363,161.703714 L170.894696,164.024834 C171.053114,164.117073 171.301542,164.122118 171.449158,164.036364 L177.327901,160.639357 C177.475517,160.554324 177.466876,160.41092 177.308458,160.319401 L173.291126,157.998282 C173.132708,157.906763 172.88428,157.901718 172.737383,157.987472 M183.960568,151.501885 L180.486897,153.509534 C180.33928,153.594568 180.347921,153.737971 180.506339,153.82949 L184.523671,156.15061 C184.682089,156.242129 184.930517,156.247173 185.077414,156.16214 L188.551805,154.15449 C188.699422,154.069457 188.690781,153.926053 188.532363,153.834534 L184.51503,151.513415 C184.356613,151.421896 184.108185,151.416851 183.960568,151.501885 M190.817181,159.477716 L194.290852,157.470787 C194.438469,157.385033 194.429108,157.24163 194.27069,157.150111 L190.253357,154.828991 C190.095659,154.737472 189.847231,154.732428 189.699615,154.817461 L186.225223,156.825111 C186.077606,156.910144 186.086968,157.053548 186.245385,157.145067 L190.261998,159.466186 C190.421136,159.557705 190.669564,159.562749 190.817181,159.477716" id="Fill-33" fill="#334F55"></path>
                <path d="M173.565477,197.943736 L207.84854,178.13531 C208.882576,177.538636 210.557485,177.538636 211.590081,178.13531 L231.249016,189.493736 C232.282333,190.09041 232.282333,191.058204 231.249016,191.655599 L196.965953,211.464024 C195.932637,212.060698 194.257008,212.060698 193.223692,211.464024 L173.565477,200.105599 C172.53216,199.508204 172.53216,198.54041 173.565477,197.943736" id="Fill-34" fill="#132529"></path>
                <path d="M236.61146,102.686308 L236.619381,102.679102 L236.575456,102.650277 L230.723357,99.2763304 C230.384919,99.125 229.887343,99.2691242 229.289675,99.7231153 C223.843702,103.894789 216.524077,105.187583 210.538763,103.282262 C210.1564,102.925554 209.789158,102.54867 209.443519,102.145843 L209.334787,102.023337 L209.328306,102.023337 C209.125963,101.799945 208.924341,101.634202 208.723438,101.526109 L208.621907,101.468459 L202.761886,98.1017184 C202.092931,97.7846452 201.488063,98.1017184 201.084097,99.0961752 C195.42498,113.1699 183.363621,127.430987 175.320314,130.99806 C174.721927,131.26469 174.167465,131.675443 173.735416,132.179878 C173.166552,132.835643 172.814432,133.642738 172.843235,134.485865 L174.001846,166.085089 C174.001846,175.215355 177.855,184.857262 185.711085,189.548503 L191.772728,193.052162 L191.88002,193.109812 C194.89068,194.832095 198.469483,195.840965 202.623631,195.840965 C203.466846,195.840965 204.323022,195.804933 205.209442,195.718459 C206.692089,195.574335 208.752241,194.50061 209.788438,193.426885 C227.365619,175.260033 235.913702,150.67245 235.913702,137.067129 L237.073032,104.012251 C237.101836,103.298836 236.929016,102.859257 236.61146,102.686308" id="Fill-35" fill="#00A798"></path>
                <path d="M237.073032,104.012251 L235.913702,137.067129 C235.913702,150.67245 227.365619,175.260033 209.788438,193.426885 C208.752241,194.50061 206.692089,195.574335 205.209442,195.718459 C204.323022,195.804933 203.466846,195.840965 202.623631,195.840965 C198.469483,195.840965 194.89068,194.832095 191.88002,193.109812 L191.772728,193.052162 L191.563905,192.92245 C183.707819,188.231208 179.854665,178.589302 179.854665,169.459035 L178.696055,137.859812 C178.666531,137.016685 179.020091,136.20959 179.588235,135.553104 C180.020284,135.04939 180.574746,134.638636 181.172414,134.372007 C189.21644,130.804933 201.277799,116.543847 206.936917,102.470122 C207.340882,101.475665 207.952231,101.151386 208.621907,101.468459 L208.723438,101.526109 C208.924341,101.634202 209.125963,101.799945 209.328306,102.023337 L209.334787,102.023337 L209.443519,102.145843 C215.448996,109.143071 227.258327,109.135865 235.142495,103.097062 C235.740162,102.643071 236.237738,102.498947 236.575456,102.650277 L236.619381,102.679102 L236.61146,102.686308 C236.929016,102.859257 237.101836,103.298836 237.073032,104.012251" id="Fill-36" fill="#8489B2"></path>
                <path d="M216.02074,104.141242 C214.142769,104.120344 212.297921,103.839302 210.565406,103.290909 C210.561805,103.287306 210.557485,103.283703 210.554604,103.28082 C212.29072,103.834978 214.139888,104.118902 216.02074,104.141242 M236.577617,102.646674 C236.568256,102.64235 236.558174,102.638027 236.548093,102.634424 L230.723357,99.2763304 C230.636947,99.2374169 230.540456,99.2179601 230.434604,99.2179601 C230.12497,99.2179601 229.735406,99.3844235 229.289675,99.7231153 C228.505507,100.324113 227.682454,100.864579 226.829878,101.345233 C227.682454,100.864579 228.506227,100.322672 229.291116,99.7209534 C229.736126,99.3822616 230.12569,99.2157982 230.435325,99.2157982 C230.541176,99.2157982 230.637667,99.235255 230.724077,99.2741685 L236.577617,102.646674" id="Fill-37" fill="#FFFFFE"></path>
                <path d="M222.109026,107.510144 C217.784219,107.510865 213.62215,106.136641 210.565406,103.290909 C212.297921,103.839302 214.142769,104.120344 216.02074,104.141242 C216.100669,104.141962 216.180598,104.142683 216.259807,104.142683 C219.850852,104.142683 223.550629,103.192905 226.822677,101.349557 L226.822677,101.348836 C226.825558,101.347395 226.826998,101.346674 226.829878,101.345233 C227.682454,100.864579 228.505507,100.324113 229.289675,99.7231153 C229.735406,99.3844235 230.12497,99.2179601 230.434604,99.2179601 C230.540456,99.2179601 230.636947,99.2374169 230.723357,99.2763304 L236.548093,102.634424 C236.469604,102.604157 236.383195,102.588304 236.289584,102.588304 C235.979949,102.588304 235.591105,102.754767 235.145375,103.092738 C231.349108,106.000443 226.639777,107.510144 222.109026,107.510144" id="Fill-38" fill="#797EA9"></path>
                <path d="M173.619483,132.319678 C173.656927,132.271397 173.695811,132.223836 173.736856,132.177716 C173.764219,132.145288 173.792302,132.113581 173.821826,132.082594 C173.792302,132.114302 173.764219,132.146729 173.735416,132.179878 C173.695811,132.225998 173.656927,132.272118 173.619483,132.319678" id="Fill-39" fill="#758585"></path>
                <path d="M191.480375,115.930599 C191.479655,115.930599 191.479655,115.930599 191.479655,115.929878 C195.286724,110.804102 198.737353,104.932483 201.084817,99.0940133 C201.388692,98.3460089 201.806339,97.9813747 202.278712,97.9813747 C202.43497,97.9813747 202.596988,98.0210089 202.762606,98.0995565 L208.624787,101.464856 C208.610385,101.45837 208.596704,101.451885 208.582302,101.445399 L202.761886,98.1017184 C202.596268,98.0231707 202.434249,97.9835366 202.277992,97.9835366 C201.804899,97.9835366 201.387972,98.3481707 201.084097,99.0961752 C198.736633,104.933925 195.286724,110.804823 191.480375,115.930599" id="Fill-40" fill="#FFFFFE"></path>
                <path d="M184.639604,123.944623 C186.943864,121.624224 189.271166,118.90316 191.479655,115.929878 C191.479655,115.930599 191.479655,115.930599 191.480375,115.930599 C189.273327,118.901718 186.946024,121.623503 184.643205,123.943182 L184.639604,123.944623" id="Fill-41" fill="#7C9092"></path>
                <path d="M174.234432,131.684091 C174.558469,131.405931 174.92931,131.163803 175.321034,130.995898 C178.092627,129.766519 181.340913,127.268126 184.639604,123.944623 L184.643205,123.943182 C181.342353,127.268847 178.092627,129.76796 175.320314,130.99806 C174.932911,131.171009 174.563509,131.403769 174.234432,131.684091" id="Fill-42" fill="#758585"></path>
                <path d="M179.18571,136.103659 L173.340811,132.725388 C173.425061,132.58847 173.517231,132.450831 173.619483,132.319678 C173.656927,132.272118 173.695811,132.225998 173.735416,132.179878 C173.764219,132.146729 173.792302,132.114302 173.821826,132.082594 C173.876552,132.023503 173.934878,131.967295 173.996085,131.911086 L174.003286,131.90388 L174.104097,131.802993 L174.204909,131.709313 C174.21427,131.700665 174.224351,131.692738 174.234432,131.684091 C174.563509,131.403769 174.932911,131.171009 175.320314,130.99806 C178.092627,129.76796 181.342353,127.268847 184.643205,123.943182 C186.946024,121.623503 189.273327,118.901718 191.480375,115.930599 C195.286724,110.804823 198.736633,104.933925 201.084097,99.0961752 C201.387972,98.3481707 201.804899,97.9835366 202.277992,97.9835366 C202.434249,97.9835366 202.596268,98.0231707 202.761886,98.1017184 L208.582302,101.445399 C208.432525,101.380543 208.285629,101.347395 208.143053,101.347395 C207.795254,101.347395 207.476978,101.543404 207.211988,101.940466 C207.111897,102.088914 207.020446,102.265466 206.936917,102.470122 C205.152556,106.907705 202.731643,111.363304 200.001095,115.497506 C194.071227,124.472118 186.681755,131.92622 181.175294,134.368404 C180.577627,134.635033 180.023164,135.045787 179.591116,135.550222 C179.504706,135.648226 179.423337,135.751275 179.347728,135.857927 C179.290842,135.937916 179.236116,136.020067 179.18571,136.103659" id="Fill-43" fill="#9095C0"></path>
                <path d="M179.18787,136.1051 L179.18571,136.103659 C179.236116,136.020067 179.290842,135.937916 179.347728,135.857927 C179.290842,135.938636 179.237556,136.020787 179.18787,136.1051 M200.001095,115.497506 C202.731643,111.363304 205.152556,106.907705 206.936917,102.470122 C207.020446,102.265466 207.111897,102.088914 207.211988,101.940466 C207.113337,102.088193 207.021886,102.263304 206.939797,102.466519 C205.154716,106.904823 202.732363,111.362583 200.001095,115.497506" id="Fill-44" fill="#4FB9B1"></path>
                <polyline id="Fill-45" fill="#00A798" points="174.003286 131.896674 174.104097 131.802993 174.003286 131.90388 174.003286 131.896674"></polyline>
                <polyline id="Fill-46" fill="#00A390" points="174.003286 131.90388 174.003286 131.896674 174.104097 131.802993 174.003286 131.90388"></polyline>
                <polyline id="Fill-47" fill="#0C1B1F" points="191.809452 193.071619 191.774888 193.055765 188.880882 191.380322 191.772728 193.052162 191.809452 193.071619"></polyline>
                <path d="M191.813053,193.07378 L191.809452,193.071619 L191.772728,193.052162 L188.880882,191.380322 L185.711805,189.546341 C177.85572,184.8551 174.003286,175.213193 174.003286,166.082927 L172.843955,134.483703 C172.822353,133.863969 173.009574,133.258647 173.340811,132.725388 L179.18571,136.103659 C178.859513,136.63908 178.674452,137.239357 178.696055,137.859812 L179.854665,169.459035 C179.854665,178.589302 183.707819,188.231208 191.563905,192.92245 L191.772728,193.052162 L191.813053,193.07378" id="Fill-48" fill="#8489B2"></path>
                <path d="M191.882901,193.106208 L191.813053,193.07378 L191.772728,193.052162 L191.563905,192.92245 C183.707819,188.231208 179.854665,178.589302 179.854665,169.459035 L178.696055,137.859812 C178.674452,137.239357 178.859513,136.63908 179.18571,136.103659 L179.18787,136.1051 C178.863834,136.638359 178.676613,137.236475 178.698215,137.856208 L179.857546,169.455432 C179.857546,178.585698 183.70998,188.227605 191.566065,192.918847 L191.774888,193.048559 L191.882901,193.106208" id="Fill-49" fill="#00A390"></path>
                <path d="M212.564351,164.03204 L203.206176,169.438858 L204.6557,152.497062 C203.536694,151.904712 202.823093,150.446896 202.823093,148.354933 C202.823093,144.624279 205.089189,140.290466 207.885984,138.675554 C210.680619,137.059922 212.946714,138.775 212.946714,142.504933 C212.946714,144.598337 212.233834,146.879823 211.114108,148.764967 L212.564351,164.03204" id="Fill-50" fill="#334F55"></path>
                <polyline id="Fill-51" fill="#253C40" points="212.564351 164.03204 204.087556 159.13398 203.206176 169.438858 212.564351 164.03204"></polyline>
                <path d="M207.885984,138.675554 C206.056258,139.731984 204.458398,141.954379 203.569097,144.408093 L211.114108,148.767849 L211.114108,148.764967 C212.233834,146.879823 212.946714,144.597616 212.946714,142.504933 C212.946714,138.775 210.680619,137.059922 207.885984,138.675554" id="Fill-52" fill="#253C40"></path>
                <path d="M102.808144,259.155432 C105.278022,257.728603 109.282394,257.728603 111.751552,259.155432 C114.22143,260.582262 114.22143,262.895455 111.751552,264.323004 C109.282394,265.749834 105.278022,265.749834 102.808144,264.323004 C100.338266,262.895455 100.338266,260.582262 102.808144,259.155432 M90.8237882,262.445787 L90.8237882,265.262694 C90.8123124,268.571785 92.991998,271.884479 97.3628905,274.409534 C103.944432,278.212251 113.611521,279.13969 121.707394,277.200499 L129.225041,281.544401 L135.001531,280.237195 L138.943976,282.515078 L139.15928,287.284146 L141.282799,288.511364 L146.61788,288.980488 L150.451592,291.120732 L150.451592,293.808647 L155.262454,296.588082 L167.496633,296.588082 L171.881927,294.05582 L171.881927,291.212971 L132.753438,271.448503 C134.555801,269.534534 135.459503,267.413747 135.463824,265.29296 L135.463824,262.445787 C134.875517,259.697339 132.586379,258.279157 128.933408,256.168459 C120.215385,251.131319 106.080913,251.131319 97.3628905,256.168459 C93.4434888,258.43265 91.2191582,259.484756 90.8237882,262.445787" id="Fill-53" fill="#00A798"></path>
                <path d="M167.496633,296.588082 L167.496633,293.745233 L155.262454,293.745233 L155.262454,296.588082 L150.451592,293.808647 L150.451592,291.120732 L146.61788,288.980488 L146.61788,286.136918 L141.282799,285.667794 L141.282799,288.511364 L139.15928,287.284146 L139.15928,284.441297 L138.943976,279.672228 L138.943976,282.515078 L135.001531,280.237195 L135.001531,277.394346 L129.225041,278.701552 L129.225041,281.544401 L121.707394,277.200499 C118.969645,277.856264 116.054037,278.184146 113.137708,278.184146 C107.428905,278.184146 101.719381,276.926663 97.3628905,274.409534 C93.0006389,271.888803 90.8209533,268.584756 90.8238308,265.28143 C90.8238308,265.274945 90.8238308,265.268459 90.8238308,265.262694 L90.8238308,262.445787 C90.8238308,262.445067 90.8238308,262.445067 90.8238308,262.444346 C90.8238308,265.74551 93.0035193,269.047395 97.3628905,271.566685 C99.6412272,272.882539 102.288966,273.854656 105.113844,274.482317 L105.113844,277.318681 C107.694615,277.893016 110.423722,278.180543 113.15283,278.180543 C116.064118,278.180543 118.974686,277.854102 121.707394,277.199778 L121.707394,274.35765 C121.14357,274.492406 120.572546,274.61347 119.995761,274.720843 C120.572546,274.61347 121.14357,274.492406 121.707394,274.35765 L129.225041,278.701552 L135.001531,277.394346 L138.943976,279.672228 L139.15928,284.441297 L141.282799,285.667794 L146.61788,286.136918 L150.777069,288.459479 L150.451592,290.965798 L155.262454,293.745233 L167.496633,293.745233 L167.496633,296.588082" id="Fill-54" fill="#9095C0"></path>
                <path d="M134.256247,269.473282 L132.753438,268.604933 C134.54356,266.704656 135.447262,264.599723 135.463824,262.493348 L135.463824,265.29296 C135.460943,266.706818 135.058418,268.120676 134.256247,269.473282" id="Fill-55" fill="#00A593"></path>
                <path d="M113.107465,260.317794 C112.79927,259.894789 112.347059,259.499169 111.751552,259.155432 C110.516613,258.442018 108.89859,258.08531 107.279848,258.08531 C105.661826,258.08531 104.043083,258.442018 102.808144,259.155432 C102.212637,259.499169 101.760426,259.894789 101.452231,260.317794 C100.482282,258.988248 100.933773,257.394956 102.808144,256.312583 C104.043083,255.598448 105.661826,255.241741 107.279848,255.241741 C108.89859,255.241741 110.516613,255.598448 111.751552,256.312583 C113.625923,257.394956 114.078134,258.988248 113.107465,260.317794" id="Fill-56" fill="#9095C0"></path>
                <path d="M102.808144,256.312583 C105.278022,254.885033 109.282394,254.885033 111.751552,256.312583 C114.22143,257.739412 114.22143,260.052605 111.751552,261.479435 C109.282394,262.906264 105.278022,262.906264 102.808144,261.479435 C100.338266,260.052605 100.338266,257.739412 102.808144,256.312583 M97.3628905,271.566685 C103.944432,275.369401 113.611521,276.29684 121.707394,274.35765 L129.225041,278.701552 L135.001531,277.394346 L138.943976,279.672228 L139.15928,284.441297 L141.282799,285.667794 L146.61788,286.136918 L150.777069,288.459479 L150.451592,290.965798 L155.262454,293.745233 L167.496633,293.745233 L171.881927,291.212971 L132.753438,268.604933 C137.361957,263.712639 136.096775,257.464135 128.933408,253.32561 C120.215385,248.287749 106.080913,248.287749 97.3628905,253.32561 C88.6448682,258.362029 88.6448682,266.528825 97.3628905,271.566685" id="Fill-57" fill="#8489B2"></path>
                <path d="M113.148509,272.869568 C107.613966,272.869568 102.446663,271.645233 98.5999899,269.423559 C95.2300101,267.475721 93.2973124,264.93265 93.2973124,262.445787 C93.2973124,259.959645 95.2300101,257.415854 98.5992698,255.468736 C102.446663,253.246341 107.613966,252.022727 113.148509,252.022727 C118.682333,252.022727 123.849635,253.246341 127.696308,255.468736 C131.066288,257.415854 132.998266,259.959645 132.998266,262.445787 C132.998266,264.93265 131.066288,267.475721 127.697028,269.422838 C123.849635,271.645233 118.682333,272.869568 113.148509,272.869568 M113.148509,253.01286 C107.785345,253.01286 102.793742,254.189634 99.0939655,256.326275 C96.0393813,258.091796 94.2867039,260.322838 94.2867039,262.445787 C94.2867039,264.569457 96.0393813,266.799778 99.0946856,268.56602 C102.793742,270.702661 107.785345,271.879435 113.148509,271.879435 C118.511673,271.879435 123.502556,270.702661 127.202333,268.56602 C130.256917,266.799778 132.008874,264.569457 132.008874,262.445787 C132.008874,260.322838 130.256917,258.091796 127.201613,256.326275 C123.502556,254.189634 118.511673,253.01286 113.148509,253.01286" id="Fill-58" fill="#9095C0"></path>
                <path d="M113.15283,278.180543 C110.423722,278.180543 107.694615,277.893016 105.113844,277.318681 L105.113844,274.482317 C107.689574,275.05449 110.414361,275.341297 113.137708,275.341297 C115.454209,275.341297 117.76927,275.134479 119.995761,274.720843 C120.572546,274.61347 121.14357,274.492406 121.707394,274.35765 L121.707394,277.199778 C118.974686,277.854102 116.064118,278.180543 113.15283,278.180543" id="Fill-59" fill="#9095C0"></path>
                <path d="M113.137708,275.341297 C110.414361,275.341297 107.689574,275.05449 105.113844,274.482317 L105.113844,274.476552 C107.694615,275.051608 110.422282,275.339135 113.151389,275.339135 C115.46285,275.339135 117.77431,275.133038 119.995761,274.720843 C117.76927,275.134479 115.454209,275.341297 113.137708,275.341297" id="Fill-60" fill="#00A593"></path>
                <polyline id="Fill-61" fill="#00A28C" points="129.225041 281.544401 129.225041 278.701552 135.001531 277.394346 135.001531 280.237195 129.225041 281.544401"></polyline>
                <polyline id="Fill-62" fill="#00A28C" points="139.15928 287.284146 139.15928 287.284146 138.943976 282.515078 138.943976 279.672228 139.15928 284.441297 139.15928 287.284146"></polyline>
                <polyline id="Fill-63" fill="#00A28C" points="146.61788 288.980488 146.61788 288.980488 141.282799 288.511364 141.282799 285.667794 146.61788 286.136918 146.61788 288.980488"></polyline>
                <polygon id="Fill-64" fill="#9095C0" points="155.262454 296.588082 167.496633 296.588082 167.496633 293.745233 155.262454 293.745233"></polygon>
                <polyline id="Fill-65" fill="#9095C0" points="167.496633 296.588082 167.496633 293.745233 169.417809 292.635477 169.417809 293.861973 170.478489 293.248725 170.478489 292.022949 171.881927 291.212971 171.881927 294.05582 167.496633 296.588082"></polyline>
                <path d="M167.496633,293.745233 L169.417089,292.635477 L169.417809,292.635477 L167.496633,293.745233 M170.478489,292.022949 L170.478489,292.009257 L171.881927,291.212971 L170.478489,292.022949" id="Fill-66" fill="#00A390"></path>
                <polyline id="Fill-67" fill="#00A798" points="170.478489 292.009257 169.417809 292.634756 169.417809 293.861973 170.478489 293.248725 170.478489 292.009257"></polyline>
                <polyline id="Fill-68" fill="#9095C0" points="169.417809 292.635477 169.417809 292.634756 169.417089 292.635477 131.412647 270.675277 131.412647 269.43653 130.351968 270.062029 131.412647 269.43653 170.478489 292.009257 169.417809 292.634756 169.417809 292.635477"></polyline>
                <polyline id="Fill-69" fill="#009278" points="169.417809 292.636197 169.417809 292.635477 169.417809 292.636197"></polyline>
                <polyline id="Fill-70" fill="#009F85" points="169.417809 292.635477 169.417089 292.635477 169.417809 292.634756 169.417809 292.635477"></polyline>
                <polyline id="Fill-71" fill="#00A390" points="170.478489 293.248725 169.417809 292.636197 169.417809 292.634756 170.478489 292.009257 170.478489 293.248725"></polyline>
                <polyline id="Fill-72" fill="#00A390" points="131.412647 270.676718 130.351968 270.062029 131.412647 270.675277 131.412647 270.676718"></polyline>
                <polyline id="Fill-73" fill="#009F85" points="131.412647 270.675277 130.351968 270.062029 131.412647 269.43653 131.412647 270.675277"></polyline>
            </g>
        </g>
    </g>
</svg>