<?xml version="1.0" encoding="UTF-8"?>
<svg width="325px" height="282px" viewBox="0 0 325 282" version="1.1" xmlns="http://www.w3.org/2000/svg" xmlns:xlink="http://www.w3.org/1999/xlink">
    <title>ill invite</title>
    <defs>
        <polygon id="path-1" points="0.0420258621 0.696428037 324.361207 0.696428037 324.361207 167.19871 0.0420258621 167.19871"></polygon>
        <path d="M14.386153,5.54973201 C14.386153,2.34766749 13.0014009,0.357573201 10.7726293,0.357573201 C9.89498922,0.357573201 8.93469828,0.653568238 7.921875,1.2399603 C5.45145474,2.65905707 3.17295259,5.52034243 1.82112069,8.89384615 L1.77979526,8.99880893 L1.77979526,8.99950868 C1.05064655,10.8475533 0.665409483,12.6948983 0.665409483,14.3673052 L0.665409483,25.8257419 L14.386153,17.9150471 L14.386153,5.54973201" id="path-3"></path>
    </defs>
    <g id="Page-1" stroke="none" stroke-width="1" fill="none" fill-rule="evenodd">
        <g id="Invite" transform="translate(-920.000000, -210.000000)">
            <g id="ill-invite" transform="translate(1082.500000, 351.000000) scale(-1, 1) translate(-1082.500000, -351.000000) translate(920.000000, 210.000000)">
                <g id="Group-3" transform="translate(0.000000, 114.759305)">
                    <mask id="mask-2" fill="white">
                        <use xlink:href="#path-1"></use>
                    </mask>
                    <g id="Clip-2"></g>
                    <path d="M47.5018319,142.850844 C110.837608,175.370412 213.525,175.371112 276.859375,142.851543 C340.195151,110.330576 340.195151,57.6063722 276.859375,25.086804 C213.523599,-7.43346402 110.836907,-7.43346402 47.5011315,25.0854045 C-15.833944,57.6049727 -15.833944,110.330576 47.5018319,142.850844" id="Fill-1" fill="#F8F7F5" mask="url(#mask-2)"></path>
                </g>
                <path d="M271.728017,170.500839 C271.804364,166.15328 276.357866,154.78861 280.972306,149.222784 C285.586045,143.656258 292.757759,139.652978 297.770744,141.463935 C302.439817,143.151037 301.823438,149.298357 296.053287,153.278546 C290.283836,157.258734 281.627209,162.23397 278.998491,169.242685 L273.589062,177.802749 L271.728017,170.500839" id="Fill-4" fill="#59BAA4"></path>
                <path d="M273.589062,177.802749 L271.728017,170.500839 C271.804364,166.15328 276.357866,154.78861 280.972306,149.222784 C284.820474,144.579231 290.449838,141.023092 295.121013,141.023092 C296.049084,141.023092 296.939332,141.163742 297.770744,141.463935 C299.84542,142.214069 300.876455,143.843792 300.875755,145.773707 C300.875054,148.186452 299.25986,151.06733 296.053287,153.278546 C290.283836,157.258734 281.627209,162.23397 278.998491,169.242685 L273.589062,177.802749" id="Fill-5" fill="#41B49B"></path>
                <path d="M272.552425,174.028988 C272.69181,174.020591 272.812284,173.920526 272.843103,173.778476 C276.016756,158.989221 288.243481,147.136824 295.483136,144.596725 C295.648438,144.538645 295.735291,144.35671 295.677155,144.191568 C295.61972,144.027127 295.44181,143.936159 295.271606,143.997037 C287.895366,146.585419 275.442403,158.631648 272.221821,173.645524 C272.184698,173.816963 272.293966,173.984903 272.465571,174.02269 L272.552425,174.028988" id="Fill-6" fill="#FFFFFE"></path>
                <path d="M274.601886,183.566605 C275.344343,181.135667 278.401724,177.154779 283.292134,173.907231 C288.702263,170.316104 295.497144,168.738864 297.106735,165.898571 C299.040625,162.485181 296.189871,159.179553 290.687284,159.763846 C285.183998,160.348839 275.398976,167.665444 273.658405,178.907658 L274.601886,183.566605" id="Fill-7" fill="#59BAA4"></path>
                <path d="M273.584159,180.983821 C273.705334,180.976124 273.816002,180.899851 273.86153,180.778794 C278.63917,168.144774 288.425593,163.851797 292.933567,163.346576 C293.107974,163.326983 293.233351,163.169538 293.213739,162.9953 C293.194828,162.820362 293.044235,162.695806 292.862123,162.7154 C287.878556,163.273102 278.143265,167.658447 273.266864,180.554174 C273.204526,180.717916 273.287877,180.90195 273.452478,180.963529 L273.584159,180.983821" id="Fill-8" fill="#FFFFFE"></path>
                <path d="M59.2466595,211.602164 L64.548222,208.575737 C64.548222,208.575737 67.0907866,194.577201 65.1884159,182.542868 C62.5155711,165.624268 50.984375,159.788337 46.7964978,161.470541 C42.6086207,163.152045 41.6245151,168.163667 49.1877694,177.939901 C53.6502155,183.707256 59.3895474,195.900432 59.2466595,211.602164" id="Fill-9" fill="#59BAA4"></path>
                <path d="M59.2466595,211.602164 C59.2480603,211.402734 59.2494612,211.204005 59.2487608,211.005275 C59.2438578,195.591841 53.5934806,183.634481 49.1877694,177.939901 C45.1771013,172.756139 43.5703125,168.911702 43.5696118,166.193166 C43.5689116,163.78462 44.8296875,162.259861 46.7964978,161.470541 C47.2531789,161.286506 47.7967134,161.192739 48.4074892,161.192739 C53.3938578,161.192739 62.8069504,167.469514 65.1884159,182.542868 C65.7067349,185.821906 65.8951509,189.246491 65.8951509,192.49404 C65.89375,201.166065 64.548222,208.575737 64.548222,208.575737 L59.2466595,211.602164" id="Fill-10" fill="#41B49B"></path>
                <path d="M61.1679418,204.882447 L61.1161099,204.878948 C60.9087823,204.850258 60.7644935,204.659926 60.7932112,204.453499 C62.9841595,188.613916 56.6081358,171.25937 49.4441272,164.26605 C49.2949353,164.120501 49.2921336,163.880486 49.4385237,163.731439 C49.5842134,163.584491 49.8237608,163.579593 49.9729526,163.725841 C57.2672414,170.847216 63.7651401,188.483762 61.541972,204.556362 C61.516056,204.745295 61.353556,204.882447 61.1679418,204.882447" id="Fill-11" fill="#FFFFFE"></path>
                <path d="M44.5376078,220.090854 C43.6998922,220.571583 41.9733297,219.521256 41.3121228,219.077613 C40.1802263,218.319082 39.2626616,217.244263 38.6532866,216.028794 C37.9444504,214.613896 37.7651401,213.098233 37.9878772,211.533588 C38.1027478,210.722576 38.3296875,209.931156 38.5566272,209.143236 C38.7793642,208.37001 39.0014009,207.596784 39.2241379,206.823558 C39.4440733,206.060129 39.6654095,205.270809 39.5645474,204.483588 C39.3614224,202.896551 37.9514547,201.785345 36.6696659,200.826685 C35.252694,199.766561 33.7761853,198.366357 33.7845548,196.456035 C33.7908944,194.982357 34.5550647,193.613643 35.4691272,192.456253 C36.3838901,191.299563 37.4688578,190.277926 38.2946659,189.056159 C38.8900323,188.17797 39.3537177,187.145136 39.2570582,186.088511 C39.1968211,185.431444 38.9243534,184.812864 38.6098599,184.233469 C37.9346444,182.99001 37.0436961,181.850814 36.5786099,180.514288 C36.1128233,179.178462 36.1793642,177.516551 37.2230065,176.55999 C38.0803341,175.774868 39.3530172,175.665707 40.512931,175.74268 C41.5859914,175.813355 42.6345366,176.296883 43.5731142,176.818199 C46.6087823,178.5046 48.3416487,182.096427 51.562931,183.394467 C52.8047953,183.894789 54.1664332,184.00465 55.4615302,184.346129 C56.7566272,184.688308 58.0776401,185.349573 58.6772091,186.546149 C59.8595366,188.905712 57.6650862,191.813181 58.4964978,194.317593 C59.2319504,196.534407 61.3878772,197.382506 62.598222,199.380298 C63.1284483,200.253588 63.2503233,201.26403 63.1648707,202.281469 C63.0198815,204.004958 62.7677263,205.26871 61.9398168,207.18533 C61.2561961,208.768169 59.2466595,211.602164 59.2466595,211.602164 C59.1962284,211.651846 44.6657866,220.01738 44.5376078,220.090854" id="Fill-12" fill="#59BAA4"></path>
                <path d="M53.1431034,215.510278 L53.1332974,215.510278 C52.9189655,215.501181 52.7578664,215.324844 52.7655711,215.117717 C53.3896552,200.124834 46.3195043,183.572903 41.1776401,178.764908 C41.0256466,178.622159 41.0172414,178.383543 41.1594289,178.230998 C41.3023168,178.078452 41.5411638,178.071454 41.6938578,178.212804 C46.9393858,183.118764 54.1538254,199.944998 53.5213362,215.148506 C53.512931,215.352134 53.3448276,215.510278 53.1431034,215.510278" id="Fill-13" fill="#FFFFFE"></path>
                <path d="M50.8947198,197.798159 L50.7833513,197.781365 C45.9615841,196.292293 39.9525862,196.029186 39.8930496,196.027087 C39.6836207,196.01869 39.5218211,195.842352 39.5302263,195.633826 C39.5393319,195.426 39.6969289,195.261558 39.9238685,195.272055 C39.984806,195.274854 46.0890625,195.540759 51.0060884,197.059921 C51.2057112,197.120799 51.3177802,197.332824 51.2561422,197.531553 C51.2057112,197.693896 51.0565194,197.798159 50.8947198,197.798159" id="Fill-14" fill="#FFFFFE"></path>
                <path d="M46.3832435,214.529226 L122.826185,258.617092 C124.500916,259.583449 127.216487,259.583449 128.891918,258.617092 L273.620582,175.122 C275.295313,174.156342 275.295313,172.589598 273.620582,171.623241 L197.17764,127.533975 C195.502209,126.568318 192.786638,126.568318 191.111907,127.533975 L46.3832435,211.030467 C44.7085129,211.996824 44.7085129,213.562868 46.3832435,214.529226" id="Fill-15" fill="#334044"></path>
                <path d="M87.6988685,235.010263 C90.0257004,236.352387 93.7975216,236.352387 96.1243534,235.010263 C98.4504849,233.668139 98.4504849,231.49331 96.1243534,230.151186 C93.7975216,228.809062 90.0257004,228.809062 87.6988685,230.151186 C85.3720366,231.49331 85.3720366,233.668839 87.6988685,235.010263" id="Fill-16" fill="#242C2E"></path>
                <path d="M122.826185,258.617092 L46.3832435,214.529226 C44.885722,213.665032 44.7316272,212.322208 45.9125539,211.357251 C44.4626616,212.455861 43.3503772,214.532725 43.3503772,216.278605 L43.3503772,219.127295 C43.3503772,221.06001 44.7085129,223.409077 46.3832435,224.375434 L122.826185,268.4633 C123.6632,268.946829 124.760776,269.188943 125.859052,269.188943 L125.859052,259.342035 C124.760776,259.342035 123.6632,259.10062 122.826185,258.617092" id="Fill-17" fill="#415358"></path>
                <path d="M273.619881,184.967509 C275.294612,184.001851 276.652748,181.652084 276.652748,179.720069 L276.652748,176.87068 C276.652748,175.124099 275.539062,173.045836 274.08847,171.947926 C275.272899,172.913583 275.119504,174.257107 273.620582,175.122 L128.891918,258.617092 C128.054203,259.10062 126.956627,259.342035 125.859052,259.342035 L125.859052,269.188943 C126.956627,269.188943 128.054203,268.946829 128.891918,268.4633 L273.619881,184.967509" id="Fill-18" fill="#242C2E"></path>
                <path d="M135.422737,249.481132 L63.2657328,207.860591 C62.2606142,207.280496 62.2606142,206.34073 63.2657328,205.761335 L181.933459,137.272422 C182.939978,136.692328 184.568481,136.692328 185.573599,137.271722 L257.755819,178.885965 C258.760938,179.46606 258.760938,180.405826 257.755819,180.985221 L139.061476,249.481132 C138.056358,250.061926 136.427155,250.061926 135.422737,249.481132" id="Fill-19" fill="#FDFCFB"></path>
                <path d="M116.65819,193.475092 L159.336153,218.091663 L132.400377,233.628253 C131.566164,234.109682 130.201024,234.109682 129.367511,233.628253 L89.7231142,210.761062 C88.8889009,210.279633 88.8889009,209.492412 89.7231142,209.011682 L116.65819,193.475092" id="Fill-20" fill="#E5E5E0"></path>
                <path d="M159.333351,218.090263 L154.303556,198.116546 C154.183782,197.642114 153.924623,197.209667 153.54569,196.899677 L153.537284,196.89268 C153.153448,196.570794 152.68556,196.366467 152.185453,196.326581 L116.656088,193.472993 L159.333351,218.090263" id="Fill-21" fill="#DEDED8"></path>
                <path d="M159.333351,218.090263 L121.138847,216.515821 C120.193265,216.480834 119.415787,215.760089 119.303718,214.822422 L116.656088,193.472993 L159.333351,218.090263" id="Fill-22" fill="#DEDED8"></path>
                <path d="M159.333351,218.090263 L121.138847,216.515821 C120.193265,216.480834 119.415787,215.760089 119.303718,214.822422 L116.656088,193.472993 L121.369989,214.451553 C121.454041,214.829419 121.783244,215.10932 122.175485,215.144308 L159.333351,218.090263" id="Fill-23" fill="#FDFCFB"></path>
                <polyline id="Fill-24" fill="#FDFCFB" points="125.193642 216.450744 130.883944 234.502243 132.400377 233.628253 125.193642 216.450744"></polyline>
                <polyline id="Fill-25" fill="#FDFCFB" points="88.2059806 209.886372 89.7231142 209.011682 119.503341 213.168208 88.2059806 209.886372"></polyline>
                <path d="M140.935129,184.503573 L174.889925,204.088228 C175.72694,204.571057 177.085075,204.571057 177.922791,204.088228 L226.103341,176.298283 C226.941056,175.815454 226.941056,175.031732 226.103341,174.548903 L192.149946,154.964948 C191.312931,154.481419 189.954795,154.481419 189.11708,154.964948 L140.935129,182.754194 C140.097414,183.237022 140.097414,184.020744 140.935129,184.503573" id="Fill-26" fill="#E5E5E0"></path>
                <path d="M229.529149,153.15539 C230.041864,153.452084 230.873976,153.452084 231.388093,153.15539 C231.901509,152.859395 231.901509,152.379365 231.388093,152.08337 C230.873976,151.787375 230.041864,151.787375 229.529149,152.08337 C229.015032,152.379365 229.015032,152.859395 229.529149,153.15539" id="Fill-28" fill="#242C2E"></path>
                <path d="M232.499677,161.578303 C233.527209,162.170993 235.191433,162.170993 236.218265,161.578303 C237.245097,160.986313 237.245097,160.025553 236.218265,159.433563 C235.191433,158.841573 233.527209,158.841573 232.499677,159.433563 C231.472845,160.025553 231.472845,160.986313 232.499677,161.578303" id="Fill-29" fill="#242C2E"></path>
                <g id="Group-33" transform="translate(70.743534, 0.000000)">
                    <path d="M159.135129,157.845826 C159.81945,157.451166 159.783028,156.789901 159.052478,156.36935 L146.820851,149.313752 C146.091703,148.893201 144.945097,148.871509 144.260075,149.266169 C143.576455,149.662228 143.612177,150.322794 144.341325,150.743345 L156.573653,157.798943 C157.303502,158.219494 158.450108,158.241186 159.135129,157.845826" id="Fill-30" fill="#242C2E"></path>
                    <path d="M0.570851293,68.8562829 C0.570851293,67.4763722 1.54024784,65.7976675 2.73728448,65.1084119 L113.564386,1.18398015 C114.760722,0.494024814 116.700216,0.494024814 117.897252,1.18398015 L120.338955,2.59188089 C121.535291,3.28253598 122.505388,4.96054094 122.505388,6.34045161 L122.505388,91.2091563 C122.505388,92.5841687 121.530388,94.2705707 120.338955,94.9584268 L9.51185345,158.882159 C8.32042026,159.569315 6.37042026,159.569315 5.17898707,158.882159 L2.73728448,157.474258 C1.54585129,156.786402 0.570851293,155.1 0.570851293,153.725687 L0.570851293,68.8562829" id="Fill-32" fill="#8489B2"></path>
                </g>
                <path d="M71.9475754,66.7255385 L71.9461746,66.7248387 C72.2032328,66.2790968 72.5275323,65.8690422 72.8917565,65.5408586 C72.5296336,65.8676427 72.2060345,66.2776973 71.9475754,66.7255385 M191.599407,2.96204963 C191.434106,2.82 191.260399,2.69474442 191.082489,2.59188089 L190.264386,2.12024814 L191.085291,2.59048139 C191.2618,2.69404467 191.434806,2.81930025 191.599407,2.96204963 M185.433513,0.771126551 C185.769019,0.700451613 186.121336,0.66546402 186.473653,0.66546402 C186.781142,0.66546402 187.088631,0.692054591 187.384914,0.745935484 C187.088631,0.692754342 186.781142,0.666163772 186.474353,0.666163772 C186.121336,0.666163772 185.769019,0.701151365 185.433513,0.771126551" id="Fill-34" fill="#FFFFFE"></path>
                <path d="M78.0952586,70.2676824 L71.9475754,66.7255385 C72.2060345,66.2776973 72.5296336,65.8676427 72.8917565,65.5408586 C73.079472,65.3722184 73.277694,65.2252705 73.4836207,65.1070124 L184.311422,1.18747891 C184.638524,0.995746898 185.02306,0.85719603 185.433513,0.771126551 C185.769019,0.701151365 186.121336,0.666163772 186.474353,0.666163772 C186.781142,0.666163772 187.088631,0.692754342 187.384914,0.745935484 C187.842996,0.829205955 188.274461,0.976153846 188.635884,1.18747891 L190.264386,2.12024814 L191.082489,2.59188089 C191.260399,2.69474442 191.434106,2.82 191.599407,2.96204963 C191.989547,3.29933002 192.339063,3.73317618 192.612231,4.20830769 L78.0952586,70.2676824" id="Fill-35" fill="#7B80AC"></path>
                <path d="M75.9302263,158.886357 C75.928125,158.884958 75.9253233,158.883558 75.9225216,158.882159 L75.8643858,158.848571 L75.9225216,158.882159 C75.9253233,158.883558 75.928125,158.884958 75.9302263,158.886357" id="Fill-36" fill="#D9D9D3"></path>
                <path d="M71.3108836,129.735395 L71.3108836,68.8548834 C71.3108836,68.1684268 71.5567349,67.4000993 71.9461746,66.7248387 L71.9475754,66.7255385 C71.5560345,67.403598 71.3143858,68.1670273 71.3143858,68.8562829 L71.3143858,129.733995 L71.3108836,129.735395" id="Fill-37" fill="#E4E4DF"></path>
                <path d="M72.5555496,156.698933 C71.820097,155.876725 71.3108836,154.721434 71.3108836,153.722189 L71.3108836,129.735395 L71.3143858,129.733995 L71.3143858,153.725687 C71.3143858,154.718635 71.8235991,155.873926 72.5555496,156.698933" id="Fill-38" fill="#D9D9D3"></path>
                <path d="M78.0749461,159.395077 C77.8515086,159.395077 77.6273707,159.381082 77.4088362,159.353792 C77.0908405,159.312506 76.7938578,159.241132 76.5171875,159.148764 C76.3049569,159.078089 76.1123384,158.987821 75.9302263,158.886357 C75.928125,158.884958 75.9253233,158.883558 75.9225216,158.882159 L75.8643858,158.848571 L73.4836207,157.46936 C73.1516164,157.279727 72.8371228,157.013821 72.5555496,156.698933 C71.8235991,155.873926 71.3143858,154.718635 71.3143858,153.725687 L71.3143858,68.8562829 C71.3143858,68.1670273 71.5560345,67.403598 71.9475754,66.7255385 L78.0952586,70.2676824 L79.2229526,70.9226501 C78.5463362,71.1990521 78.0952586,71.8750124 78.0952586,72.7657965 L78.0952586,157.633102 C78.0952586,158.350347 78.3516164,158.841573 78.7613685,159.056397 C78.9147629,159.13337 79.0863685,159.174655 79.2740841,159.174655 C79.4365841,159.174655 79.6109914,159.143166 79.7966056,159.07669 C79.7146552,159.117975 79.6327047,159.148764 79.5402478,159.179553 C79.4071659,159.220139 79.2635776,159.261424 79.1199892,159.292213 C78.781681,159.360789 78.4279634,159.395077 78.0749461,159.395077" id="Fill-39" fill="#7B80AC"></path>
                <path d="M78.7613685,159.056397 L78.7613685,159.056397 C78.3516164,158.841573 78.0952586,158.350347 78.0952586,157.633102 L78.0952586,156.220303 L122.029095,89.6403127 L78.0952586,70.2676824 L129.420043,89.4240893 C130.374731,89.7788635 131.360237,89.949603 132.333136,89.949603 C135.089332,89.949603 137.744666,88.5815881 139.319935,86.1681439 L192.730603,4.41963275 C192.732004,4.42313151 192.734106,4.42663027 192.736207,4.43082878 L149.205119,74.0267494 L193.248222,91.2462432 C193.237716,91.9424963 192.981358,92.7206203 192.571606,93.4070769 L149.082543,74.2233797 L139.504849,89.5367494 C137.934483,92.0383623 135.225216,93.45466 132.425593,93.45466 C131.295797,93.45466 130.151994,93.2237419 129.061422,92.7409132 L122.242026,89.7340794 L78.7613685,159.056397" id="Fill-41" fill="#FFFFFF"></path>
                <path d="M243.081042,142.254655 L243.081042,141.002099 L243.390679,141.002099 C243.7507,140.272958 244.425916,139.584402 245.421228,139.010605 C248.54305,137.209444 253.604364,137.209444 256.726185,139.010605 C257.722198,139.584402 258.396013,140.272958 258.756735,141.002099 L259.062823,141.002099 L259.062823,142.214769 C259.088039,143.413444 258.311261,144.616318 256.726185,145.530893 C253.604364,147.331355 248.54305,147.331355 245.421228,145.530893 C243.853664,144.626814 243.074084,143.440035 243.081042,142.254655" id="Fill-45" fill="#242C2E"></path>
                <path d="M256.726185,137.741955 C253.604364,135.941494 248.54305,135.941494 245.421228,137.741955 C242.299407,139.542417 242.299407,142.461782 245.421228,144.262243 C248.54305,146.062705 253.604364,146.062705 256.726185,144.262243 C259.848006,142.461782 259.848006,139.542417 256.726185,137.741955" id="Fill-46" fill="#415358"></path>
                <path d="M253.132274,93.0236129 L253.130873,140.454893 C253.130873,140.758586 252.93055,141.062278 252.527802,141.294596 C251.725108,141.757831 250.422306,141.757831 249.618912,141.294596 C249.216864,141.062278 249.016541,140.758586 249.016541,140.454893 L249.017942,93.0236129 L253.132274,93.0236129" id="Fill-47" fill="#334044"></path>
                <polyline id="Fill-48" fill="#242C2E" points="249.016541 98.2080744 249.016541 99.6943474 253.132274 102.062308 253.132274 100.586531 249.016541 98.2080744"></polyline>
                <path d="M275.286907,80.4840596 L275.286907,80.4861588 L274.935991,81.1880099 L262.661638,105.780089 L262.543966,105.784988 C262.298114,105.784988 262.051562,105.730407 261.865248,105.621945 L234.895151,90.048268 C234.52042,89.8327444 234.215733,89.3058313 234.215733,88.8733846 L234.215733,78.48067 C234.215733,73.2885112 237.638039,67.1062035 241.861638,64.6696675 C243.862769,63.5150769 245.680388,63.4206104 247.042726,64.1854392 L247.047629,64.1749429 L275.286907,80.4840596" id="Fill-49" fill="#415358"></path>
                <path d="M270.191272,81.032665 C268.486422,81.6645409 262.284106,86.7818263 262.284106,94.8401687 C262.284106,101.613767 262.29181,105.13072 262.293912,105.763295 C262.375862,105.775891 262.459213,105.784988 262.543966,105.784988 L262.661638,105.780089 L271.578125,87.9140248 L270.191272,81.032665" id="Fill-50" fill="#334044"></path>
                <path d="M277.504472,97.2697072 L277.503071,97.2725062 C277.45264,97.3620744 277.357381,97.4579404 277.222198,97.5440099 L277.153556,97.5873945 L263.223384,105.621945 C263.066487,105.712913 262.866864,105.766094 262.661638,105.780089 L262.543966,105.784988 L262.543966,94.839469 C262.543966,92.9718313 262.98944,90.978938 263.755011,89.0735136 L264.441433,89.470273 L269.380172,92.318263 L277.047791,96.742794 C277.047791,96.742794 277.223599,96.8449578 277.440032,96.9688139 C277.556304,97.0359901 277.573114,97.1472506 277.504472,97.2697072" id="Fill-51" fill="#334044"></path>
                <path d="M276.843966,96.8603524 L263.531573,104.539429 C263.419504,104.603806 263.328448,104.551325 263.328448,104.421871 L263.328448,94.839469 C263.328448,93.1691613 263.714386,91.3155186 264.441433,89.470273 L264.482759,89.3653102 C264.755927,88.6830521 265.066218,88.0238859 265.41083,87.3927097 C266.763362,84.8945955 268.6118,82.8436228 270.583513,81.7114243 C271.596336,81.1250323 272.555927,80.8290372 273.434267,80.8290372 C273.989709,80.8290372 274.493319,80.9528933 274.935991,81.1880099 C276.268912,81.8975583 277.047791,83.6182481 277.047791,86.021196 L277.047791,96.5083772 C277.047791,96.6378313 276.956735,96.7952754 276.843966,96.8603524 Z M275.286907,80.4861588 C273.935075,79.7773102 272.150377,79.901866 270.191272,81.032665 C267.99472,82.2957171 266.0132,84.5797072 264.620744,87.2072754 C264.299246,87.8139603 264.009267,88.4388387 263.755011,89.0735136 C262.98944,90.978938 262.543966,92.9718313 262.543966,94.839469 L262.543966,105.784988 L262.661638,105.780089 C262.866864,105.766094 263.066487,105.712913 263.223384,105.621945 L277.153556,97.5873945 L277.222198,97.5440099 C277.324461,97.473335 277.41972,97.3788685 277.503071,97.2725062 L277.504472,97.2697072 C277.701994,97.0205955 277.831573,96.6959107 277.831573,96.4125112 L277.831573,86.021196 C277.831573,83.2403821 276.848869,81.3055682 275.286907,80.4861588 L275.286907,80.4861588 Z" id="Fill-52" fill="#415358"></path>
                <path d="M277.047791,86.021196 L277.047791,96.742794 L264.441433,89.470273 L264.482759,89.3653102 C265.834591,85.9918065 268.113093,83.1305211 270.583513,81.7114243 C271.596336,81.1250323 272.555927,80.8290372 273.434267,80.8290372 C275.663039,80.8290372 277.047791,82.8191315 277.047791,86.021196" id="Fill-53" fill="#242C2E"></path>
                <path d="M253.974192,91.3610025 L255.082974,90.7214293 L255.083675,90.7214293 L255.09208,90.716531 L255.09278,90.7179305 C255.472414,90.5038065 255.993534,90.535995 256.569989,90.8683772 C257.730603,91.5380397 258.671983,93.1663623 258.671983,94.5056873 C258.671983,95.1746501 258.437338,95.6441836 258.058405,95.8639057 L258.058405,95.8646055 L258.056304,95.8653052 L257.023869,96.4558958 L256.838254,96.145206 C256.646336,96.1011216 256.446013,96.0325459 256.235183,95.9107891 C255.074569,95.2411266 254.13319,93.612804 254.132489,92.2734789 C254.132489,92.0747494 254.159806,91.8991117 254.19903,91.7367692 L253.974192,91.3610025" id="Fill-54" fill="#DEDED8"></path>
                <path d="M255.503933,91.48066 C256.664547,92.1503226 257.605227,93.7786452 257.605227,95.1179702 C257.605927,96.4572953 256.665248,97.0003027 255.503933,96.3306402 C254.342619,95.6609777 253.40194,94.0326551 253.40194,92.6926303 C253.40194,91.354005 254.342619,90.8109975 255.503933,91.48066" id="Fill-55" fill="#FDFCFB"></path>
                <path d="M255.503933,94.4825955 C255.167026,94.4825955 254.893858,94.2096923 254.893858,93.8731117 L254.893858,76.6585161 C254.893858,76.3219355 255.167026,76.049732 255.503933,76.049732 C255.84014,76.049732 256.113308,76.3219355 256.113308,76.6585161 L256.113308,93.8731117 C256.113308,94.2096923 255.84014,94.4825955 255.503933,94.4825955" id="Fill-56" fill="#EBEBE7"></path>
                <polyline id="Fill-57" fill="#59BAA4" points="254.893858 78.3596129 248.7882 74.8377618 250.699677 78.5121588 248.7882 79.9816377 254.893858 83.5034888 254.893858 78.3596129"></polyline>
                <g id="Group-63" transform="translate(262.661638, 80.471464)">
                    <mask id="mask-4" fill="white">
                        <use xlink:href="#path-3"></use>
                    </mask>
                    <g id="Clip-59"></g>
                    <path d="M11.2040948,9.05828784 C11.2040948,8.88614888 11.0836207,8.67762283 10.9351293,8.5908536 L-2.8752694,0.626277916 C-3.02446121,0.540208437 -3.26610991,0.540208437 -3.41530172,0.626277916 L-3.71928879,0.801215881 C-3.8684806,0.88728536 -3.98965517,1.09651117 -3.98965517,1.26865012 L-3.98965517,11.8433002 C-3.98965517,12.0154392 -3.86778017,12.2253648 -3.71928879,12.3107345 L10.0904095,20.2760099 C10.2382004,20.3620794 10.4819504,20.3620794 10.6304418,20.2760099 L10.9351293,20.101072 C11.0829203,20.0150025 11.2040948,19.8050769 11.2040948,19.6336377 L11.2040948,9.05828784" id="Fill-58" fill="#F2F2EF" mask="url(#mask-4)"></path>
                    <path d="M11.1256466,8.79308189 L10.359375,9.23392556 L-3.91050647,1.00274442 C-3.86147629,0.918774194 -3.79423491,0.844600496 -3.71998922,0.801215881 L-3.41460129,0.626277916 C-3.26681034,0.539508685 -3.02376078,0.539508685 -2.87596983,0.626277916 L10.9344289,8.5908536 C11.009375,8.63423821 11.0773168,8.70841191 11.1256466,8.79308189" id="Fill-60" fill="#FDFCFB" mask="url(#mask-4)"></path>
                    <path d="M11.2047953,9.05828784 L11.2047953,19.6336377 C11.2047953,19.8057767 11.0829203,20.0150025 10.9344289,20.1003722 L10.6304418,20.2760099 L10.5561961,20.309598 L10.4448276,20.3347891 C10.3747845,20.3438859 10.3005388,20.3410868 10.2318966,20.3270918 L10.1793642,20.3130968 L10.1478448,20.3005012 L10.2767241,20.2977022 C10.3271552,20.2711117 10.359375,20.2095335 10.359375,20.120665 L10.359375,9.54531514 C10.359375,9.43475434 10.3033405,9.35008437 10.2192888,9.31579653 L10.359375,9.23392556 L11.1256466,8.79308189 C11.1739763,8.87705211 11.2047953,8.97221836 11.2047953,9.05828784" id="Fill-61" fill="#DEDED8" mask="url(#mask-4)"></path>
                    <path d="M10.359375,9.23392556 L3.96373922,11.6214789 C3.50775862,11.7908189 2.99644397,11.6228784 2.7309806,11.2156228 L-3.9609375,0.973354839 L1.49892241,9.70275931 L-3.98965517,11.8481985 C-3.98825431,11.9349677 -3.95603448,12.0322333 -3.90490302,12.117603 L1.51363147,9.72725062 L2.70716595,11.6354739 C2.98173491,12.0728189 3.53647629,12.2435583 4.00856681,12.0343325 L4.85889009,11.6599653 L10.2767241,20.2977022 C10.3271552,20.2711117 10.359375,20.2095335 10.359375,20.120665 L10.359375,19.9450273 L4.88480603,11.6480695 L10.359375,9.23392556" id="Fill-62" fill="#DEDED8" mask="url(#mask-4)"></path>
                </g>
                <path d="M286.238847,87.806263 L284.774946,89.0238313 C284.466756,89.4849677 284.060506,90.0174789 283.521175,90.6332605 L277.833675,97.196933 L268.279795,102.710978 L263.712284,106.496635 L263.670959,106.503633 C263.537177,106.524625 263.383782,106.503633 263.271013,106.439955 L262.84445,106.195742 L262.836746,106.188744 C262.683351,106.090079 262.64833,105.901146 262.767403,105.761896 L262.774407,105.754199 L266.108459,101.905563 L266.115463,101.899266 C266.773168,101.143533 267.488308,100.317127 268.237769,99.4564318 C271.3757,95.8254194 277.350377,90.9131613 281.566272,88.4780248 C283.542188,87.343727 284.774946,86.9525658 285.215517,87.225469 L285.223222,87.2184715 L286.224838,87.7992655 L286.238847,87.806263" id="Fill-64" fill="#415358"></path>
                <path d="M284.550108,91.2343474 L281.777101,94.4329132 L281.721067,94.5021886 L279.086746,97.5321141 C278.961369,97.679062 278.723222,97.8756923 278.555119,97.9736576 L263.874084,106.439955 L263.712284,106.496635 L263.670959,106.503633 C264.140248,105.957826 266.311584,103.452015 268.965517,100.394799 L268.973222,100.394799 C269.064278,100.282839 269.169343,100.170878 269.267403,100.051921 C272.405334,96.4265062 278.380011,91.5149479 282.596606,89.0791117 C284.522791,87.967206 285.75555,87.5683474 286.224838,87.7992655 L286.238847,87.806263 C286.771175,88.1001588 286.245851,89.2820397 284.550108,91.2343474" id="Fill-65" fill="#334044"></path>
            </g>
        </g>
    </g>
</svg>