<?xml version="1.0" encoding="UTF-8"?>
<svg width="32px" height="32px" viewBox="0 0 32 32" version="1.1" xmlns="http://www.w3.org/2000/svg" xmlns:xlink="http://www.w3.org/1999/xlink">
    <title>invite</title>
    <g id="Page-1" stroke="none" stroke-width="1" fill="none" fill-rule="evenodd">
        <g id="My-Profile" transform="translate(-160.000000, -340.000000)">
            <g id="invite" transform="translate(160.000000, 340.000000)">
                <rect id="Rectangle-Copy-3" fill="#FF7D7D" x="0" y="0" width="32" height="32" rx="8"></rect>
                <g id="149724" transform="translate(8.000000, 8.000000)" fill="#FFFFFF" fill-rule="nonzero">
                    <path d="M14.2545455,0 C13.2919273,0 12.5090909,0.782836364 12.5090909,1.74545455 C12.5090909,2.04654545 12.5856,2.32989091 12.7202909,2.57745455 L9.86094545,5.4368 C9.46676364,5.12989091 8.97338182,4.94545455 8.43636364,4.94545455 C7.89934545,4.94545455 7.40596364,5.12989091 7.01149091,5.43650909 L4.78050909,3.20552727 C4.88290909,3.03243636 4.94545455,2.83345455 4.94545455,2.61818182 C4.94545455,1.97643636 4.42356364,1.45454545 3.78181818,1.45454545 C3.14007273,1.45454545 2.61818182,1.97643636 2.61818182,2.61818182 C2.61818182,3.25992727 3.14007273,3.78181818 3.78181818,3.78181818 C3.99709091,3.78181818 4.19607273,3.71927273 4.36916364,3.61687273 L6.60014545,5.84785455 C6.29352727,6.24232727 6.10909091,6.73570909 6.10909091,7.27272727 C6.10909091,7.80974545 6.29352727,8.30312727 6.60014545,8.69730909 L2.91607273,12.3816727 C2.60596364,12.1003636 2.19607273,11.9272727 1.74545455,11.9272727 C0.782836364,11.9272727 0,12.7101091 0,13.6727273 C0,14.6353455 0.782836364,15.4181818 1.74545455,15.4181818 C2.70807273,15.4181818 3.49090909,14.6353455 3.49090909,13.6727273 C3.49090909,13.3716364 3.4144,13.0882909 3.27970909,12.8407273 L7.01178182,9.10865455 C7.33352727,9.35883636 7.7216,9.5264 8.14574545,9.57963636 L8.14574545,12.5352727 C7.3216,12.6743273 6.6912,13.3911273 6.6912,14.2545455 C6.6912,15.2171636 7.47403636,16 8.43665455,16 C9.39927273,16 10.1821091,15.2171636 10.1821091,14.2545455 C10.1821091,13.3914182 9.55170909,12.6746182 8.72756364,12.5352727 L8.72756364,9.57963636 C9.15170909,9.5264 9.53978182,9.35883636 9.86152727,9.10865455 L12.0925091,11.3396364 C11.9898182,11.5130182 11.9272727,11.712 11.9272727,11.9272727 C11.9272727,12.5690182 12.4491636,13.0909091 13.0909091,13.0909091 C13.7326545,13.0909091 14.2545455,12.5690182 14.2545455,11.9272727 C14.2545455,11.2855273 13.7326545,10.7636364 13.0909091,10.7636364 C12.8756364,10.7636364 12.6766545,10.8261818 12.5035636,10.9285818 L10.2725818,8.6976 C10.5792,8.30312727 10.7636364,7.80974545 10.7636364,7.27272727 C10.7636364,6.73570909 10.5792,6.24232727 10.2725818,5.84814545 L13.0842182,3.03650909 C13.3940364,3.31781818 13.8039273,3.49090909 14.2545455,3.49090909 C15.2171636,3.49090909 16,2.70807273 16,1.74545455 C16,0.782836364 15.2171636,0 14.2545455,0 Z" id="Path"></path>
                </g>
            </g>
        </g>
    </g>
</svg>