<?xml version="1.0" encoding="UTF-8"?>
<svg width="32px" height="32px" viewBox="0 0 32 32" version="1.1" xmlns="http://www.w3.org/2000/svg" xmlns:xlink="http://www.w3.org/1999/xlink">
    <title>noti</title>
    <g id="Page-1" stroke="none" stroke-width="1" fill="none" fill-rule="evenodd">
        <g id="My-Profile" transform="translate(-160.000000, -284.000000)">
            <g id="noti" transform="translate(160.000000, 284.000000)">
                <rect id="Rectangle-Copy-2" fill="#60CB8C" x="0" y="0" width="32" height="32" rx="8"></rect>
                <g id="ic_notification" transform="translate(9.000000, 9.000000)">
                    <path d="M7.5,0 C10.2614237,-5.07265313e-16 12.5,2.23857625 12.5,5 L12.5,9.16666667 L12.5,9.16666667 L2.5,9.16666667 L2.5,5 C2.5,2.23857625 4.73857625,5.07265313e-16 7.5,0 Z" id="Rectangle" fill="#FFFFFF"></path>
                    <path d="M6.66666667,14.1666667 C6.66666667,13.7064294 7.03655402,13.3333333 7.5,13.3333333 L7.5,13.3333333 C7.96023729,13.3333333 8.33333333,13.7032207 8.33333333,14.1666667 L8.33333333,15 L6.66666667,15 L6.66666667,14.1666667 Z" id="Rectangle-2-Copy" stroke="#FFFFFF" stroke-width="0.833333333" transform="translate(7.500000, 14.166667) rotate(-180.000000) translate(-7.500000, -14.166667) "></path>
                    <path d="M2.5,10.8333333 C2.5,12.2140452 1.38071187,13.3333333 0,13.3333333 L15,13.3333333 C13.6192881,13.3333333 12.5,12.2140452 12.5,10.8333333 L2.5,10.8333333 Z" id="Oval" stroke="#FFFFFF" stroke-width="0.75" fill="#FFFFFF" stroke-linecap="round" stroke-linejoin="round"></path>
                </g>
            </g>
        </g>
    </g>
</svg>