<?xml version="1.0" encoding="UTF-8"?>
<svg width="12px" height="11px" viewBox="0 0 12 11" version="1.1" xmlns="http://www.w3.org/2000/svg" xmlns:xlink="http://www.w3.org/1999/xlink">
    <title>rating star</title>
    <g id="Page-1" stroke="none" stroke-width="1" fill="none" fill-rule="evenodd">
        <g id="Listing" transform="translate(-453.000000, -703.000000)" fill="#FFFFFF">
            <path d="M459,712 L456.370025,713.38266 C456.125602,713.51116 455.823289,713.417187 455.694788,713.172765 C455.643619,713.075435 455.625961,712.96395 455.64455,712.855572 L456.14683,709.927051 L456.14683,709.927051 L454.019136,707.853061 C453.821394,707.660311 453.817348,707.343754 454.010098,707.146012 C454.086853,707.06727 454.187424,707.016027 454.296242,707.000214 L457.236644,706.572949 L457.236644,706.572949 L458.551632,703.908493 C458.673843,703.660866 458.973656,703.559197 459.221283,703.681408 C459.319889,703.730073 459.399703,703.809887 459.448368,703.908493 L460.763356,706.572949 L460.763356,706.572949 L463.703758,707.000214 C463.97703,707.039923 464.166371,707.293645 464.126662,707.566917 C464.11085,707.675736 464.059606,707.776307 463.980864,707.853061 L461.85317,709.927051 L461.85317,709.927051 L462.35545,712.855572 C462.402131,713.12774 462.219337,713.386218 461.947169,713.432898 C461.83879,713.451487 461.727306,713.433829 461.629975,713.38266 L459,712 L459,712 Z" id="rating-star"></path>
        </g>
    </g>
</svg>