<?xml version="1.0" encoding="UTF-8"?>
<svg width="42px" height="42px" viewBox="0 0 42 42" version="1.1" xmlns="http://www.w3.org/2000/svg" xmlns:xlink="http://www.w3.org/1999/xlink">
    <title>share</title>
    <g id="Page-1" stroke="none" stroke-width="1" fill="none" fill-rule="evenodd">
        <g id="Professional-About" transform="translate(-932.000000, -379.000000)">
            <g id="share" transform="translate(933.000000, 380.000000)">
                <circle id="Oval-Copy-2" stroke="#8489B2" cx="20" cy="20" r="20"></circle>
                <path d="M25.917826,22.7307893 C25.0386315,22.7307893 24.2478373,23.106957 23.686366,23.708073 L17.125881,20.4406804 C17.1484434,20.2879564 17.1639782,20.1322229 17.1639782,19.9719755 C17.1639782,19.8162421 17.1491832,19.6642703 17.1277304,19.5149318 L23.6785986,16.2840275 C24.2404397,16.8892813 25.0345628,17.2692107 25.917826,17.2692107 C27.6203637,17.2692107 29,15.865729 29,14.1346053 C29,12.4031055 27.6203637,11 25.917826,11 C24.2152882,11 22.8356519,12.4031055 22.8356519,14.1346053 C22.8356519,14.2903388 22.8504469,14.4419343 22.8718997,14.5916491 L16.3217713,17.8225533 C15.7599301,17.2172995 14.965807,16.8373702 14.0825439,16.8373702 C12.3796363,16.8373702 11,18.2408518 11,19.9719755 C11,21.7034754 12.3796363,23.1065808 14.082174,23.1065808 C14.9613685,23.1065808 15.7521627,22.7304132 16.313634,22.1300495 L22.8737491,25.3970659 C22.8508168,25.54979 22.835282,25.7055234 22.835282,25.8653947 C22.835282,27.5972707 24.2149183,29 25.9174561,29 C27.6199938,29 28.9996301,27.5972707 28.9996301,25.8653947 C29,24.1338948 27.6203637,22.7307893 25.917826,22.7307893 Z" id="Shape" fill="#8489B2" fill-rule="nonzero"></path>
            </g>
        </g>
    </g>
</svg>